<svg xmlns="http://www.w3.org/2000/svg" viewBox="0 0 101.602 101.581"><path d="m49.432 79.002 1.12-23.124-32.05 44.71Zm31.863 22.579L50.552 55.878l-1.12 23.124zm0 0L71.228 64.138l-20.676-8.26zm-62.793-.993 32.05-44.71-21.37 6.032zm32.05-44.71L0 37.808 29.183 61.91Zm0 0 20.677 8.26 30.373-24.724zm0 0L38.465 36.482 0 37.808Zm0 0 51.05-16.464-37.152-1.555zm0 0 13.898-18.02L51.36 0Zm0 0L51.359 0 38.465 36.482Z" style="fill:#ff0;fill-opacity:1;stroke:none;stroke-width:0;stroke-linejoin:round;stroke-opacity:1"/><path style="fill:#8d8d1c;fill-opacity:1;stroke:#000;stroke-width:0;stroke-linejoin:round;stroke-opacity:1" d="m0 0 .807-55.878-12.894 36.482z" transform="translate(50.552 55.878)"/><path style="fill:#a5a521;fill-opacity:1;stroke:#000;stroke-width:0;stroke-linejoin:round;stroke-opacity:1" d="m0 0 13.899-18.02L.807-55.877Z" transform="translate(50.552 55.878)"/><path style="fill:#91911d;fill-opacity:1;stroke:#000;stroke-width:0;stroke-linejoin:round;stroke-opacity:1" d="m0 0 51.05-16.464L13.9-18.02zM0 0l-12.087-19.396-38.465 1.326z" transform="translate(50.552 55.878)"/><path style="fill:#b4b424;fill-opacity:1;stroke:#000;stroke-width:0;stroke-linejoin:round;stroke-opacity:1" d="m0 0 20.677 8.26L51.05-16.464Z" transform="translate(50.552 55.878)"/><path style="fill:#9e9e1f;fill-opacity:1;stroke:#000;stroke-width:0;stroke-linejoin:round;stroke-opacity:1" d="m0 0-50.552-18.07 29.183 24.102z" transform="translate(50.552 55.878)"/><path style="fill:#8e8e1c;fill-opacity:1;stroke:#000;stroke-width:0;stroke-linejoin:round;stroke-opacity:1" d="M-32.05 44.71 0 0l-21.369 6.032z" transform="translate(50.552 55.878)"/><path style="fill:#a6a621;fill-opacity:1;stroke:#000;stroke-width:0;stroke-linejoin:round;stroke-opacity:1" d="M30.744 45.703 20.677 8.26 0 0Z" transform="translate(50.552 55.878)"/><path style="fill:#9f9f1f;fill-opacity:1;stroke:#000;stroke-width:0;stroke-linejoin:round;stroke-opacity:1" d="M30.744 45.703 0 0l-1.12 23.124z" transform="translate(50.552 55.878)"/><path style="fill:#b4b424;fill-opacity:1;stroke:#000;stroke-width:0;stroke-linejoin:round;stroke-opacity:1" d="M-1.12 23.124 0 0l-32.05 44.71z" transform="translate(50.552 55.878)"/></svg>