<?xml version="1.0" standalone="no"?>
<!DOCTYPE svg PUBLIC "-//W3C//DTD SVG 1.1//EN" "http://www.w3.org/Graphics/SVG/1.1/DTD/svg11.dtd" >
<svg xmlns="http://www.w3.org/2000/svg" xmlns:xlink="http://www.w3.org/1999/xlink" version="1.1">
<metadata>
Created by FontForge 20170731 at Thu Apr  1 06:40:14 2021
 By Aleksey,,,
Copyright (c) 1985, 1987, 1989, 1990, 1997, 1998, 1999, 2002 Adobe Systems Incorporated.  All Rights Reserved. (c) 1981, 1999, 2002 Heidelberger Druckmaschinen AG. All rights reserved.
</metadata>
<defs>
<font id="HelveticaNeueLTStd-BoldOblique" horiz-adv-x="1251" >
  <font-face 
    font-family="Helvetica Neue LT Std"
    font-weight="700"
    font-style="italic"
    font-stretch="normal"
    units-per-em="2048"
    panose-1="2 11 7 4 2 2 2 9 2 4"
    ascent="1470"
    descent="-578"
    x-height="1090"
    cap-height="1470"
    bbox="-356 -467 2281 1970"
    underline-thickness="102"
    underline-position="-307"
    slope="-12"
    unicode-range="U+0020-FB02"
  />
<missing-glyph horiz-adv-x="1189" 
d="M166 0v1434h1024v-1434h-1024zM678 809l348 522h-696zM739 717l348 -522v1044zM330 102h696l-348 523zM268 1239v-1044l348 522z" />
    <glyph glyph-name=".notdef" horiz-adv-x="1189" 
d="M166 0v1434h1024v-1434h-1024zM678 809l348 522h-696zM739 717l348 -522v1044zM330 102h696l-348 523zM268 1239v-1044l348 522z" />
    <glyph glyph-name=".null" horiz-adv-x="0" 
 />
    <glyph glyph-name="nonmarkingreturn" horiz-adv-x="682" 
 />
    <glyph glyph-name="space" unicode=" " horiz-adv-x="569" 
 />
    <glyph glyph-name="exclam" unicode="!" horiz-adv-x="681" 
d="M51 0l55 283h302l-56 -283h-301zM195 440l110 1030h307l-264 -1030h-153z" />
    <glyph glyph-name="quotedbl" unicode="&#x22;" horiz-adv-x="909" 
d="M604 907v563h213v-563h-213zM195 907v563h213v-563h-213z" />
    <glyph glyph-name="numbersign" unicode="#" horiz-adv-x="1138" 
d="M188 0l54 389h-201l27 201h202l35 250h-194l26 200h197l53 390h205l-53 -390h198l54 390h204l-53 -390h193l-27 -200h-195l-34 -250h186l-27 -201h-188l-53 -389h-205l53 389h-199l-53 -389h-205zM674 590l35 250h-199l-35 -250h199z" />
    <glyph glyph-name="dollar" unicode="$" horiz-adv-x="1138" 
d="M745 1243l-73 -401q111 -57 177 -99t115 -92.5t68 -107t19 -133.5q0 -92 -30.5 -171.5t-89 -140.5t-150.5 -96t-208 -35h-55l-35 -200h-112l37 208q-363 67 -363 420v27h254v-25q0 -171 145 -213l78 437q-186 81 -270 180t-84 250q0 63 15 121t49.5 111.5t86 92.5
t129 62.5t173.5 23.5h51l24 144h113l-27 -156q91 -8 158 -45t105.5 -96t56.5 -131t18 -160h-241q-1 60 -9 99.5t-27 64t-40.5 37t-57.5 24.5zM565 881l70 376h-33q-88 0 -140 -48t-52 -134q0 -53 23.5 -92t44.5 -53t73 -41l4.5 -3t4.5 -2.5zM629 582l-74 -410q30 0 58.5 4
t63.5 18t60 36.5t42.5 63.5t17.5 95q0 57 -41.5 102.5t-126.5 90.5z" />
    <glyph glyph-name="percent" unicode="%" horiz-adv-x="1820" 
d="M1239 244q0 -60 19.5 -88.5t68.5 -28.5q68 0 100 54t56 177q12 65 12 115q0 60 -19.5 88.5t-68.5 28.5q-68 0 -100 -54t-56 -178q-12 -64 -12 -114zM1436 750q143 0 215.5 -81.5t72.5 -201.5q0 -100 -25 -187.5t-74 -158.5t-131 -112.5t-187 -41.5q-145 0 -221 78
t-76 213q0 77 15.5 147.5t49 133.5t82.5 109.5t121 74t158 27.5zM434 -33l811 1495h164l-809 -1495h-166zM547 1462q143 0 216 -81t73 -201q0 -100 -25 -187.5t-74 -158.5t-131.5 -112.5t-187.5 -41.5q-145 0 -221 78t-76 213q0 77 15.5 147.5t49 133.5t82.5 109.5t121 73.5
t158 27zM350 956q0 -60 19.5 -88t68.5 -28q68 0 100 54t56 177q12 65 12 115q0 60 -19.5 88.5t-68.5 28.5q-68 0 -100 -54t-56 -178q-12 -65 -12 -115z" />
    <glyph glyph-name="ampersand" unicode="&#x26;" horiz-adv-x="1366" 
d="M739 295l-211 352q-92 -41 -150.5 -101.5t-58.5 -139.5q0 -88 54 -148.5t137 -60.5q119 0 229 98zM799 1159q0 55 -35.5 85t-85.5 30q-47 0 -86 -33t-39 -90q0 -41 20 -87t62 -112q164 82 164 207zM758 768l164 -272q68 76 102 211h242q-14 -124 -74 -240t-137 -188
l168 -279h-303l-62 102q-182 -135 -389 -135q-195 0 -307.5 118.5t-112.5 303.5q0 82 30.5 155.5t85 129t117 97t136.5 73.5q-119 161 -119 295q0 144 103 246t278 102q69 0 132.5 -22t115 -63t82 -106.5t30.5 -146.5q0 -248 -282 -381z" />
    <glyph glyph-name="quotesingle" unicode="'" horiz-adv-x="569" 
d="M170 907v563h229v-563h-229z" />
    <glyph glyph-name="parenleft" unicode="(" horiz-adv-x="796" 
d="M614 1470h226q-223 -327 -321.5 -597.5t-98.5 -589.5q0 -345 125 -639h-205q-100 205 -151.5 392.5t-51.5 389.5q0 153 41.5 307.5t113 287.5t151 242t171.5 207z" />
    <glyph glyph-name="parenright" unicode=")" horiz-adv-x="796" 
d="M158 -356h-226q223 327 321.5 597.5t98.5 589.5q0 345 -125 639h205q100 -205 151.5 -392.5t51.5 -389.5q0 -153 -41.5 -307.5t-113 -287.5t-151 -242t-171.5 -207z" />
    <glyph glyph-name="asterisk" unicode="*" horiz-adv-x="796" 
d="M180 883l148 196l-217 68l51 158l211 -76v241h159v-241l211 76l52 -158l-217 -68l147 -196l-125 -88l-147 188l-148 -188z" />
    <glyph glyph-name="plus" unicode="+" horiz-adv-x="1228" 
d="M500 633v403h229v-403h404v-230h-404v-403h-229v403h-404v230h404z" />
    <glyph glyph-name="comma" unicode="," horiz-adv-x="569" 
d="M31 0l59 307h309l-57 -287q-15 -76 -45 -137t-66.5 -99.5t-80.5 -63.5t-85.5 -35.5t-84.5 -10.5l18 103q142 25 186 160l21 63h-174z" />
    <glyph glyph-name="hyphen" unicode="-" horiz-adv-x="681" 
d="M47 440l39 267h502l-37 -267h-504z" />
    <glyph glyph-name="period" unicode="." horiz-adv-x="569" 
d="M31 0l59 307h309l-59 -307h-309z" />
    <glyph glyph-name="slash" unicode="/" horiz-adv-x="569" 
d="M-39 -37l467 1544h221l-467 -1544h-221z" />
    <glyph glyph-name="zero" unicode="0" horiz-adv-x="1138" 
d="M1094 963q0 -92 -8.5 -185t-29 -192.5t-51.5 -188t-78.5 -168t-107 -137t-141 -91.5t-176.5 -34q-214 0 -322 133.5t-108 356.5q0 94 8.5 188.5t29 195t51.5 189.5t78.5 169t107 137.5t141 91.5t176.5 34q110 0 194 -39.5t134.5 -108.5t76 -157.5t25.5 -193.5zM811 1026
q0 88 -38.5 147.5t-121.5 59.5q-44 0 -79 -17.5t-59 -50.5t-40 -66.5t-31 -80.5q-40 -129 -70 -325.5t-30 -301.5q0 -97 42 -145.5t118 -48.5q44 0 79 17.5t59 50.5t40 66.5t31 80.5q40 128 70 322.5t30 291.5z" />
    <glyph glyph-name="one" unicode="1" horiz-adv-x="1138" 
d="M365 0l186 1069q-111 -31 -169.5 -38.5t-197.5 -10.5l37 188q133 0 262.5 69.5t190.5 184.5h233l-256 -1462h-286z" />
    <glyph glyph-name="two" unicode="2" horiz-adv-x="1138" 
d="M954 0h-938q5 300 271 516l389 315q117 92 117 230q0 77 -50 124.5t-125 47.5q-101 0 -156.5 -71t-55.5 -181h-283q2 94 33 178t91.5 153t161.5 109.5t230 40.5q64 0 125 -14.5t118 -47.5t99.5 -81t68 -120.5t25.5 -160.5q0 -111 -51 -215.5t-164 -185.5l-366 -262
q-58 -40 -83.5 -70t-31.5 -63h625z" />
    <glyph glyph-name="three" unicode="3" horiz-adv-x="1138" 
d="M39 440h283v-39q0 -99 52.5 -151.5t151.5 -52.5q88 0 155 60.5t67 174.5q0 102 -52.5 152.5t-148.5 50.5h-62l33 201q52 0 93 5.5t81 21t66.5 40.5t42.5 68t16 100q0 78 -52 120t-118 42q-98 0 -145 -55t-60 -158h-282q21 202 153 322t346 120q110 0 197 -33.5
t138.5 -89.5t78.5 -123t27 -139q0 -135 -75 -226t-183 -118v-6q188 -93 188 -309q0 -93 -32 -173t-94.5 -143t-163.5 -99t-230 -36q-244 0 -357.5 117.5t-113.5 355.5z" />
    <glyph glyph-name="four" unicode="4" horiz-adv-x="1138" 
d="M569 0l60 332h-631l41 276l715 834h346l-156 -881h152l-41 -229h-152l-59 -332h-275zM670 561l108 604l-4 4l-510 -608h406z" />
    <glyph glyph-name="five" unicode="5" horiz-adv-x="1138" 
d="M104 645l179 785h809l-56 -242h-575l-64 -281q63 32 115.5 44t118.5 12q94 0 168 -27t119.5 -70.5t75.5 -102.5t41.5 -118t11.5 -123q0 -115 -35.5 -214.5t-103 -176t-174.5 -120.5t-242 -44q-207 0 -326 104t-119 294v28h270v-26q0 -74 48 -122t129 -48q258 0 258 311
q0 66 -18.5 115t-50 75.5t-65.5 39t-71 12.5q-69 0 -116.5 -33t-68.5 -80z" />
    <glyph glyph-name="six" unicode="6" horiz-adv-x="1138" 
d="M1094 1071h-271q0 71 -38 116.5t-115 45.5q-103 0 -172 -96t-95 -281q59 47 115 69.5t131 22.5q176 0 292 -121.5t116 -324.5q0 -76 -18 -150.5t-58 -144.5t-97.5 -123t-142.5 -85t-186 -32q-75 0 -142 16t-130.5 56.5t-109.5 102t-73.5 159t-27.5 221.5
q0 267 68.5 477.5t207 336.5t326.5 126q57 0 109 -8.5t111 -34t101.5 -67t70.5 -114t28 -167.5zM354 420q0 -42 8.5 -77.5t28.5 -70.5t62 -55t102 -20q59 0 103.5 27.5t68.5 73.5t35.5 96.5t11.5 105.5q0 100 -50.5 159.5t-154.5 59.5q-41 0 -78 -16.5t-68.5 -50.5
t-50 -93.5t-18.5 -138.5z" />
    <glyph glyph-name="seven" unicode="7" horiz-adv-x="1138" 
d="M141 1188l43 242h957l-39 -218q-143 -183 -238.5 -321t-175 -286t-125.5 -294.5t-67 -310.5h-291q10 130 51 267t94.5 250t135.5 242.5t149.5 221t159.5 207.5h-654z" />
    <glyph glyph-name="eight" unicode="8" horiz-adv-x="1138" 
d="M442 1028q0 -76 46.5 -130t140.5 -54q90 0 140 65.5t50 155.5q0 70 -49.5 119t-130.5 49q-83 0 -140 -55.5t-57 -149.5zM49 387q0 82 23.5 150.5t65 116t88.5 80t102 52.5q-79 48 -117.5 116.5t-38.5 146.5q0 79 28 151.5t82 131.5t145.5 94.5t207.5 35.5
q214 0 334.5 -109.5t120.5 -273.5q0 -133 -61 -216t-185 -134q82 -54 130 -128t48 -185q0 -31 -5 -65.5t-19 -79.5t-36.5 -86t-62 -81.5t-90.5 -70t-126 -48t-165 -18.5q-212 0 -340.5 118t-128.5 302zM332 389q0 -73 48.5 -132.5t147.5 -59.5q97 0 153 70t58 171
q0 36 -10 70t-31.5 65.5t-62 50.5t-94.5 19q-93 0 -151 -69t-58 -185z" />
    <glyph glyph-name="nine" unicode="9" horiz-adv-x="1138" 
d="M72 358h270q0 -71 38.5 -116t115.5 -45q103 0 171.5 95.5t94.5 280.5q-59 -47 -115 -69.5t-131 -22.5q-176 0 -291.5 122t-115.5 325q0 76 18 150.5t58 144.5t97 122.5t142 84.5t186 32q75 0 142 -16t131 -56.5t109.5 -102t73.5 -159t28 -221.5q0 -267 -68.5 -477.5
t-207 -336.5t-326.5 -126q-57 0 -109 8.5t-111 34t-101.5 67t-70.5 114t-28 167.5zM811 1010q0 42 -8.5 77.5t-28.5 70.5t-62 55t-102 20q-59 0 -103.5 -27.5t-68.5 -73.5t-35.5 -96.5t-11.5 -105.5q0 -100 50.5 -159.5t154.5 -59.5q41 0 78 16.5t68.5 50.5t50 93.5
t18.5 138.5z" />
    <glyph glyph-name="colon" unicode=":" horiz-adv-x="681" 
d="M170 739l59 308h310l-60 -308h-309zM31 0l59 307h309l-59 -307h-309z" />
    <glyph glyph-name="semicolon" unicode=";" horiz-adv-x="681" 
d="M31 0l59 307h309l-57 -287q-15 -76 -45 -137t-66.5 -99.5t-80.5 -63.5t-85.5 -35.5t-84.5 -10.5l18 103q142 25 186 160l21 63h-174zM170 739l59 308h310l-60 -308h-309z" />
    <glyph glyph-name="less" unicode="&#x3c;" horiz-adv-x="1228" 
d="M1133 205v-221l-1037 442v184l1037 443v-222l-742 -313z" />
    <glyph glyph-name="equal" unicode="=" horiz-adv-x="1228" 
d="M1133 858v-229h-1037v229h1037zM1133 408v-230h-1037v230h1037z" />
    <glyph glyph-name="greater" unicode="&#x3e;" horiz-adv-x="1228" 
d="M96 205l742 313l-742 313v222l1037 -443v-184l-1037 -442v221z" />
    <glyph glyph-name="question" unicode="?" horiz-adv-x="1138" 
d="M358 1038h-270q6 99 38 179t81 133t113.5 89t134 52t143.5 16q109 0 199 -35t147 -93t88 -130.5t31 -150.5q0 -120 -54 -202t-188 -173l-153 -102q-41 -28 -62 -66.5t-22 -103.5h-265q18 145 60 219t176 170l125 88q88 64 88 174q0 69 -51 116.5t-137 47.5
q-192 0 -222 -228zM227 0l56 283h301l-56 -283h-301z" />
    <glyph glyph-name="at" unicode="@" horiz-adv-x="1638" 
d="M860 922q-92 0 -154.5 -77t-62.5 -173q0 -67 44.5 -114.5t109.5 -47.5q100 0 165.5 74t65.5 168q0 76 -46 123t-122 47zM1083 1008l25 102h186l-110 -506q-8 -40 -8 -69q0 -54 41 -54q76 0 140 91.5t64 248.5q0 243 -154.5 378.5t-400.5 135.5q-172 0 -303.5 -78.5
t-201.5 -214.5t-70 -309q0 -272 169 -435t439 -163q116 0 223 40.5t187 107.5h192q-109 -155 -268 -237.5t-350 -82.5q-164 0 -312 58.5t-256.5 159.5t-172.5 245t-64 307q0 161 63 305t169.5 246.5t253 162.5t308.5 60q138 0 267.5 -45t230.5 -125t162 -200t61 -260
q0 -94 -22.5 -176t-59 -141t-84 -108t-96.5 -80t-97.5 -52t-86 -30t-62.5 -9q-122 0 -131 108h-4q-72 -108 -223 -108q-128 0 -227 110.5t-99 276.5q0 115 53 221t154 176t226 70q166 0 249 -127z" />
    <glyph glyph-name="A" unicode="A" horiz-adv-x="1366" 
d="M926 543l-60 620h-4l-305 -620h369zM-35 0l770 1470h359l186 -1470h-303l-27 289h-518l-141 -289h-326z" />
    <glyph glyph-name="B" unicode="B" horiz-adv-x="1478" 
d="M31 0l266 1470h575q270 0 390 -97.5t120 -285.5q0 -119 -60 -207t-181 -128q88 -47 133 -114t45 -171q0 -222 -142.5 -344.5t-406.5 -122.5h-739zM455 649l-72 -395h377q66 0 117 20.5t79 54t42 69.5t14 73q0 90 -58 134t-159 44h-340zM557 1217l-59 -326h354
q109 0 166 47.5t57 138.5q0 77 -50 108.5t-140 31.5h-328z" />
    <glyph glyph-name="C" unicode="C" horiz-adv-x="1478" 
d="M1440 977h-307q0 127 -77 201.5t-194 74.5q-78 0 -144 -24t-113 -64t-84 -95t-60.5 -113.5t-38.5 -123t-21 -120.5t-6 -109q0 -80 19 -145.5t59 -118t109 -82t161 -29.5q123 0 214 66t126 207h312q-63 -257 -232 -398t-432 -141q-141 0 -254 41.5t-184 107.5t-118.5 154
t-67 175t-19.5 177q0 107 21.5 212t63 205t108 185t151 149.5t198 101t242.5 36.5q257 0 412.5 -138.5t155.5 -391.5z" />
    <glyph glyph-name="D" unicode="D" horiz-adv-x="1478" 
d="M567 1214l-166 -944h263q94 0 171.5 38t126.5 99t82.5 140.5t47.5 158.5t14 158q0 350 -305 350h-234zM47 0l260 1470h496q317 0 463.5 -154t146.5 -476q0 -233 -107.5 -439t-277.5 -305q-70 -41 -177 -65t-157.5 -27.5t-77.5 -3.5h-569z" />
    <glyph glyph-name="E" unicode="E" 
d="M31 0l266 1470h977l-45 -253h-676l-57 -326h620l-45 -254h-618l-68 -383h709l-45 -254h-1018z" />
    <glyph glyph-name="F" unicode="F" horiz-adv-x="1138" 
d="M25 0l270 1470h891l-45 -256h-586l-61 -342h536l-41 -254h-549l-110 -618h-305z" />
    <glyph glyph-name="G" unicode="G" horiz-adv-x="1593" 
d="M1481 981h-301q-15 141 -85.5 206.5t-215.5 65.5q-107 0 -192 -47t-135.5 -118t-84 -162t-45.5 -170t-12 -152q0 -178 88.5 -282.5t265.5 -104.5q61 0 115 16t90.5 37.5t69.5 57.5t50 60t34 61.5t20 46.5l10 30h-381l43 242h672l-133 -768h-207l-6 162q-56 -72 -142 -119
t-162 -63.5t-149 -16.5q-70 0 -143 16.5t-154.5 61.5t-144 114t-103.5 185t-41 262q0 145 31.5 278.5t96.5 248t157 198.5t220.5 132t279.5 48q128 0 235 -32.5t188 -96t126 -165t45 -232.5z" />
    <glyph glyph-name="H" unicode="H" horiz-adv-x="1478" 
d="M31 0l268 1470h307l-102 -559h575l103 559h307l-268 -1470h-308l121 657h-575l-121 -657h-307z" />
    <glyph glyph-name="I" unicode="I" horiz-adv-x="569" 
d="M18 0l267 1470h307l-266 -1470h-308z" />
    <glyph glyph-name="J" unicode="J" horiz-adv-x="1024" 
d="M545 446l182 1024h307l-176 -993q-13 -72 -21.5 -112t-27 -103t-39 -98.5t-55.5 -79.5t-79 -66.5t-107.5 -38.5t-141.5 -16q-185 0 -291 90.5t-106 245.5q0 69 22 223h277q-29 -135 -29 -194t34.5 -91t84.5 -32q75 0 108.5 54.5t57.5 186.5z" />
    <glyph glyph-name="K" unicode="K" horiz-adv-x="1366" 
d="M51 0l266 1470h301l-112 -583l557 583h381l-613 -630l431 -840h-342l-302 618l-186 -186l-76 -432h-305z" />
    <glyph glyph-name="L" unicode="L" horiz-adv-x="1138" 
d="M1071 260l-45 -260h-997l266 1470h305l-215 -1210h686z" />
    <glyph glyph-name="M" unicode="M" horiz-adv-x="1705" 
d="M31 0l258 1470h448l62 -1089h4l450 1089h463l-266 -1470h-287l244 1257h-4l-526 -1257h-273l-84 1257h-4l-199 -1257h-286z" />
    <glyph glyph-name="N" unicode="N" horiz-adv-x="1478" 
d="M618 1470l365 -940l35 -96l45 291l127 745h297l-264 -1470h-318l-354 897l-53 145l-27 -200l-137 -842h-305l270 1470h319z" />
    <glyph glyph-name="O" unicode="O" horiz-adv-x="1593" 
d="M109 618q0 107 21.5 212t63 205t108 185t151 149.5t198 101t242.5 36.5q141 0 254 -41.5t184 -107.5t118.5 -154t67 -175t19.5 -177q0 -107 -21.5 -212t-63 -205t-108 -185t-151 -149.5t-198 -101t-242.5 -36.5q-141 0 -254 41.5t-184 107.5t-118.5 154t-67 175
t-19.5 177zM416 604q0 -98 28 -174t76.5 -121.5t109.5 -68.5t132 -23q78 0 144 24t113 64t84 95t60.5 113.5t38.5 123t21 120.5t6 109q0 98 -28 174t-76.5 121.5t-109.5 68.5t-132 23q-78 0 -144 -24t-113 -64t-84 -95t-60.5 -113.5t-38.5 -123t-21 -120.5t-6 -109z" />
    <glyph glyph-name="P" unicode="P" horiz-adv-x="1366" 
d="M31 0l266 1470h506q111 0 200 -23t147.5 -61.5t97.5 -93t56 -115.5t17 -130q0 -253 -152 -394t-444 -141h-295l-92 -512h-307zM559 1217l-82 -451h273q139 0 207.5 70t68.5 180q0 201 -209 201h-258z" />
    <glyph glyph-name="Q" unicode="Q" horiz-adv-x="1593" 
d="M1241 141l150 -182l-170 -147l-170 211q-135 -60 -299 -60q-141 0 -254 41.5t-184 107.5t-118.5 154t-67 175t-19.5 177q0 107 21.5 212t63 205t108 185t151 149.5t198 101t242.5 36.5q141 0 254 -41.5t184 -107.5t118.5 -154t67 -175t19.5 -177q0 -202 -75.5 -393.5
t-219.5 -317.5zM739 403l176 136l152 -185q85 96 123.5 238t38.5 274q0 98 -28 174t-76.5 121.5t-109.5 68.5t-132 23q-78 0 -144 -24t-113 -64t-84 -95t-60.5 -113.5t-38.5 -123t-21 -120.5t-6 -109q0 -98 28 -174t76.5 -121.5t109.5 -68.5t132 -23q61 0 117 16z" />
    <glyph glyph-name="R" unicode="R" horiz-adv-x="1478" 
d="M569 1223l-71 -408h295q78 0 136 22t90 58t47 75.5t15 82.5q0 48 -18.5 82.5t-42 51t-60.5 25.5t-56 10t-48 1h-287zM51 0l262 1470h559q115 0 206 -23t161 -71.5t107.5 -132.5t37.5 -199q0 -148 -75 -245t-197 -131q20 -8 33 -15t33.5 -25t33 -40.5t22 -62t9.5 -89.5
q0 -21 -9 -130t-9 -126q0 -72 11 -98.5t58 -42.5v-39h-356q-23 63 -23 104q0 49 8 137t9 119q0 40 -2.5 65.5t-14.5 55.5t-34 47t-63 29t-99 12h-264l-97 -569h-307z" />
    <glyph glyph-name="S" unicode="S" 
d="M1217 1044h-295q0 42 -11 76.5t-37 65.5t-75.5 49t-118.5 18q-94 0 -154.5 -42.5t-60.5 -123.5q0 -43 17.5 -71t80 -64t189.5 -84q192 -73 286.5 -178t94.5 -264q0 -217 -143.5 -340t-409.5 -123q-252 0 -398.5 124.5t-146.5 371.5h295q5 -242 262 -242q105 0 175.5 47
t70.5 133q0 82 -56.5 129.5t-240.5 120.5q-71 28 -124 55.5t-101.5 64.5t-79 78.5t-48.5 97t-18 120.5q0 111 42 198t114.5 139.5t164.5 79.5t197 27q83 0 153 -13t120 -32.5t90.5 -50.5t66.5 -60t45.5 -69t28.5 -68t15.5 -67t7.5 -57t2 -46z" />
    <glyph glyph-name="T" unicode="T" horiz-adv-x="1138" 
d="M291 0l221 1217h-389l47 253h1042l-47 -253h-346l-221 -1217h-307z" />
    <glyph glyph-name="U" unicode="U" horiz-adv-x="1478" 
d="M289 1470h307l-150 -852q-20 -126 -20 -172q0 -55 17.5 -97.5t44 -66t62.5 -38.5t66.5 -20t61.5 -5q78 0 135.5 26.5t90.5 60.5t59.5 104.5t37 119t27.5 142.5l148 798h305l-162 -892q-30 -162 -75.5 -272t-123.5 -189.5t-193.5 -116.5t-279.5 -37q-74 0 -147.5 17
t-142 54t-121 89t-84 128.5t-31.5 166.5q0 80 26 235z" />
    <glyph glyph-name="V" unicode="V" 
d="M573 422l451 1048h328l-690 -1470h-291l-221 1470h303z" />
    <glyph glyph-name="W" unicode="W" horiz-adv-x="1820" 
d="M186 1470h295l19 -1015l385 1015h309l20 -1007l381 1007h312l-631 -1470h-285l-14 1085l-414 -1085h-276z" />
    <glyph glyph-name="X" unicode="X" 
d="M-43 0l522 774l-319 696h325l189 -432l289 432h352l-494 -727l342 -743h-329l-220 477l-309 -477h-348z" />
    <glyph glyph-name="Y" unicode="Y" 
d="M133 1470h328l211 -587l323 587h334l-532 -913l-95 -557h-307l99 569z" />
    <glyph glyph-name="Z" unicode="Z" 
d="M1280 1470l-31 -223l-813 -991h699l-41 -256h-1094l39 238l815 981h-664l46 251h1044z" />
    <glyph glyph-name="bracketleft" unicode="[" horiz-adv-x="796" 
d="M14 -356l324 1826h491l-34 -200h-226l-252 -1426h218l-35 -200h-486z" />
    <glyph glyph-name="backslash" unicode="\" horiz-adv-x="569" 
d="M408 -37l-467 1544h221l467 -1544h-221z" />
    <glyph glyph-name="bracketright" unicode="]" horiz-adv-x="796" 
d="M205 -156l252 1426h-217l34 200h486l-324 -1826h-491l35 200h225z" />
    <glyph glyph-name="asciicircum" unicode="^" horiz-adv-x="1228" 
d="M164 702l368 768h205l369 -768h-223l-248 539l-248 -539h-223z" />
    <glyph glyph-name="underscore" unicode="_" horiz-adv-x="1024" 
d="M1024 -256h-1024v102h1024v-102z" />
    <glyph glyph-name="grave" unicode="`" horiz-adv-x="569" 
d="M328 1251l-287 295h309l178 -295h-200z" />
    <glyph glyph-name="a" unicode="a" horiz-adv-x="1138" 
d="M657 0v119h-4q-41 -69 -118.5 -110.5t-176.5 -41.5q-145 0 -237 87t-92 241q0 168 109 263.5t337 119.5l100 10q94 9 136.5 29.5t42.5 77.5q0 114 -170 114q-149 0 -168 -121h-281q20 144 133 232q134 102 342 102q200 0 313 -84.5t113 -228.5q0 -52 -14 -131l-86 -485
q-8 -41 -8 -87q0 -55 33 -88v-18h-304zM311 326q0 -64 37.5 -96.5t100.5 -32.5q105 0 178 79.5t80 231.5q-32 -8 -92.5 -15.5t-107.5 -15.5t-95 -24t-74.5 -47.5t-26.5 -79.5z" />
    <glyph glyph-name="b" unicode="b" 
d="M25 0l266 1470h287l-105 -532q60 85 132.5 132.5t176.5 47.5q85 0 152.5 -27t111 -72t72.5 -107t41 -128.5t12 -140.5q0 -95 -21 -189.5t-64.5 -181.5t-104.5 -154t-148 -107t-188 -40q-131 0 -215 76t-96 191l-35 -238h-274zM676 891q-57 0 -104.5 -27t-77 -70.5
t-50.5 -92.5t-31.5 -100t-15 -85.5t-4.5 -56.5q0 -107 52.5 -175.5t154.5 -68.5q69 0 122.5 39t82.5 93.5t48 121t24.5 112t5.5 76.5q0 102 -55 168t-152 66z" />
    <glyph glyph-name="c" unicode="c" horiz-adv-x="1138" 
d="M768 387h289q-33 -188 -170 -304t-340 -116q-245 0 -373.5 135t-128.5 383q0 89 17.5 174.5t60.5 170.5t106.5 149t164.5 103.5t227 39.5t228 -46t166.5 -141t69.5 -226h-294q-13 184 -191 184q-124 0 -198 -120.5t-74 -315.5q0 -115 53 -187.5t151 -72.5q89 0 148.5 54
t87.5 136z" />
    <glyph glyph-name="d" unicode="d" 
d="M735 0l45 207q-61 -116 -146 -177t-224 -61q-75 0 -137.5 26.5t-104.5 71.5t-70.5 105t-41.5 125.5t-13 134.5q0 73 13.5 150.5t40 155.5t70 147t99 122.5t132 85t163.5 31.5q67 0 122 -21.5t87 -52.5t54.5 -66.5t31 -61t8.5 -39.5l109 587h289l-267 -1470h-260zM817 635
q0 106 -47.5 174t-148.5 68q-67 0 -120 -35t-83.5 -86t-50 -114.5t-26.5 -113t-7 -88.5q0 -59 14.5 -103.5t36 -70t50 -41.5t52.5 -21t48 -5q58 0 107 28t80.5 73.5t53.5 103.5t31.5 116.5t9.5 114.5z" />
    <glyph glyph-name="e" unicode="e" horiz-adv-x="1138" 
d="M1063 444h-741q-5 -30 -5 -59q0 -77 52.5 -132.5t152.5 -55.5q65 0 117 32t78 80h317q-21 -67 -64 -126.5t-107 -108.5t-156 -78t-199 -29q-223 0 -348 141t-125 388q0 85 21 171t67.5 168.5t112 146t162 102t210.5 38.5q76 0 144.5 -18t128.5 -58t103.5 -98.5t69 -144.5
t25.5 -191q0 -96 -16 -168zM342 645h455v41q0 39 -11.5 74.5t-35.5 66t-65.5 48.5t-96.5 18q-104 0 -166.5 -72.5t-79.5 -175.5z" />
    <glyph glyph-name="f" unicode="f" horiz-adv-x="681" 
d="M57 889l37 201h156q25 145 49.5 217t77.5 118q94 82 258 82q33 0 121 -14l-35 -227q-44 14 -70 14q-50 0 -70.5 -24.5t-29.5 -71.5q-5 -18 -11 -51.5t-8 -42.5h160l-35 -201h-161l-160 -887h-285l160 887h-154z" />
    <glyph glyph-name="g" unicode="g" 
d="M883 870l30 220h277l-184 -1020q-15 -86 -33 -148.5t-46.5 -123.5t-68.5 -101.5t-96.5 -72.5t-134.5 -47t-178 -15q-82 0 -151 15t-114.5 38t-80.5 55t-54.5 63t-32 64.5t-16 57t-4.5 43.5h295q14 -123 172 -123q82 0 132.5 36t86 125.5t61.5 253.5q-110 -190 -303 -190
q-84 0 -151 25.5t-111.5 69.5t-74.5 105.5t-43 131t-13 149.5q0 86 20 174.5t62.5 172.5t101.5 149.5t143.5 105t182.5 39.5q50 0 92.5 -10t72 -24.5t55.5 -38.5t41 -43t29.5 -49t20.5 -45.5t15 -41.5zM336 477q0 -112 48 -179t157 -67q74 0 129.5 40.5t85.5 105.5
t44.5 133.5t14.5 136.5q0 108 -52.5 169t-148.5 61q-56 0 -103 -26t-78.5 -68t-54 -95.5t-32.5 -107t-10 -103.5z" />
    <glyph glyph-name="h" unicode="h" 
d="M16 0l271 1470h288l-108 -530q48 76 141 127t213 51q61 0 115.5 -17.5t99.5 -52t72 -92.5t27 -133q0 -87 -21 -207l-115 -616h-288l114 608q17 93 17 129q0 74 -41.5 107t-91.5 33q-126 0 -201.5 -85.5t-101.5 -236.5l-101 -555h-289z" />
    <glyph glyph-name="i" unicode="i" horiz-adv-x="569" 
d="M29 0l196 1090h287l-197 -1090h-286zM260 1251l47 254h287l-47 -254h-287z" />
    <glyph glyph-name="j" unicode="j" horiz-adv-x="569" 
d="M512 1090l-197 -1088q-18 -98 -36 -162.5t-47.5 -121t-70 -87.5t-99.5 -48t-140 -17q-38 0 -90 10l33 227q32 -8 47 -8q43 0 66 28.5t36 102.5l211 1164h287zM260 1251l47 254h287l-47 -254h-287z" />
    <glyph glyph-name="k" unicode="k" horiz-adv-x="1138" 
d="M809 1087h371l-447 -438l236 -649h-297l-162 479l-148 -145l-57 -334h-287l267 1470h282l-141 -772z" />
    <glyph glyph-name="l" unicode="l" horiz-adv-x="569" 
d="M27 0l264 1470h291l-267 -1470h-288z" />
    <glyph glyph-name="m" unicode="m" horiz-adv-x="1820" 
d="M223 1090h260l-41 -187q25 38 57 72t76.5 69.5t102 56.5t119.5 21q112 0 177.5 -52t100.5 -148q53 70 84 98q111 104 268 104q26 0 56.5 -5.5t73.5 -25.5t76 -52t57 -92t24 -138q0 -50 -18 -160l-119 -651h-285l117 645q16 84 16 123q0 48 -33 80.5t-85 32.5t-95 -24
t-70.5 -60t-49.5 -86.5t-33.5 -93.5t-20.5 -91l-94 -526h-287l119 645q17 89 17 123q0 48 -33 80.5t-82 32.5q-104 -1 -172 -89t-96 -229l-103 -563h-280z" />
    <glyph glyph-name="n" unicode="n" 
d="M16 0l197 1090h266l-45 -197q149 225 387 225q61 0 115.5 -17.5t99.5 -52t72 -92.5t27 -133q0 -87 -21 -207l-115 -616h-288l114 608q17 93 17 129q0 74 -41.5 107t-91.5 33q-126 0 -201.5 -85.5t-101.5 -236.5l-101 -555h-289z" />
    <glyph glyph-name="o" unicode="o" 
d="M340 473q0 -133 62.5 -204.5t164.5 -71.5q132 0 224 115.5t92 303.5q0 132 -63 204.5t-165 72.5q-132 0 -223.5 -116t-91.5 -304zM45 477q0 61 14 128t42.5 141t79 140t117.5 119.5t164.5 85t213.5 31.5q108 0 198.5 -31.5t159 -93t106.5 -160t38 -225.5q0 -61 -14 -128
t-42.5 -141t-79 -140t-117.5 -119.5t-164.5 -85t-213.5 -31.5q-104 0 -194.5 33.5t-159.5 96t-108.5 160.5t-39.5 220z" />
    <glyph glyph-name="p" unicode="p" 
d="M-47 -434l274 1524h258l-47 -207l4 -4q61 123 149.5 183t217.5 60q44 0 89.5 -11.5t97 -44t91 -81.5t65.5 -132.5t26 -188.5q0 -65 -11 -136t-34 -151.5t-65 -152t-97.5 -130t-138.5 -93t-181 -34.5q-124 0 -198.5 69t-96.5 165h-4l-114 -635h-285zM399 457
q0 -126 55.5 -187t145.5 -61q62 0 113 29t84 75.5t56 107t32.5 121.5t9.5 122q0 102 -57.5 165.5t-143.5 63.5q-55 0 -100.5 -21t-75.5 -53t-52.5 -76t-35 -85t-20 -84.5t-9.5 -70t-2 -46.5z" />
    <glyph glyph-name="q" unicode="q" 
d="M1163 1090l-274 -1512h-287l115 580q-60 -86 -134.5 -133.5t-185.5 -47.5q-82 0 -147.5 27t-108 72t-71 107.5t-40.5 129t-12 140.5q0 95 21 189.5t65 181.5t105 153.5t148 106.5t188 40q131 0 215 -76t96 -190l33 232h274zM514 205q57 0 104.5 27t77 70.5t50.5 92.5
t31.5 100t15 85.5t4.5 56.5q0 107 -52.5 175.5t-154.5 68.5q-69 0 -122.5 -39t-82.5 -93.5t-48 -121.5t-24.5 -112.5t-5.5 -76.5q0 -102 55 -167.5t152 -65.5z" />
    <glyph glyph-name="r" unicode="r" horiz-adv-x="796" 
d="M782 1120l35 -2l-43 -299q-6 1 -19 5t-22 6t-23 4t-28 2q-50 0 -87.5 -12.5t-76 -47t-69 -105t-52.5 -177.5l-86 -494h-291l197 1090h264l-53 -222q94 150 165 201t189 51z" />
    <glyph glyph-name="s" unicode="s" horiz-adv-x="1024" 
d="M29 367h270q4 -42 13.5 -72t29.5 -58t58.5 -42.5t93.5 -14.5q75 0 124.5 28.5t49.5 84.5q0 42 -30 71.5t-78.5 47.5t-106.5 34.5t-116.5 40.5t-107 58.5t-78.5 95.5t-30 143q0 65 26.5 124.5t77.5 108t132.5 77t183.5 28.5q111 0 194.5 -24t131 -60t77 -87.5t39.5 -96.5
t12 -98h-274q-15 83 -50.5 118t-133.5 35q-75 0 -110.5 -28.5t-35.5 -67.5q0 -35 30 -60.5t78.5 -43.5t107 -36.5t116.5 -46t106.5 -64.5t78.5 -99t30 -144q0 -69 -27.5 -130.5t-81.5 -112t-143.5 -80t-204.5 -29.5q-75 0 -139.5 12.5t-123 42t-100 74.5t-65.5 114t-24 157z
" />
    <glyph glyph-name="t" unicode="t" horiz-adv-x="681" 
d="M254 1090l59 313h283l-57 -313h155l-35 -201h-159l-90 -524q-11 -80 -11 -84q0 -56 66 -56q27 0 65 9t43 10l-32 -234q-95 -26 -174 -26q-51 0 -95.5 10t-84 32.5t-62.5 65t-23 101.5q0 26 19 135l94 561h-156l41 201h154z" />
    <glyph glyph-name="u" unicode="u" 
d="M1190 1090l-197 -1090h-266l45 197q-150 -226 -387 -226q-61 0 -115.5 17.5t-99.5 52t-71.5 92.5t-26.5 133q0 93 20 207l115 617h289l-115 -609q-16 -88 -16 -129q0 -74 41.5 -106.5t91.5 -32.5q126 0 201.5 85.5t101.5 236.5l100 555h289z" />
    <glyph glyph-name="v" unicode="v" horiz-adv-x="1024" 
d="M741 1090h308l-523 -1090h-311l-135 1090h282l58 -771z" />
    <glyph glyph-name="w" unicode="w" horiz-adv-x="1593" 
d="M684 1090h295l35 -758l299 758h303l-500 -1090h-297l-37 780l-303 -780h-295l-114 1090h278l47 -764z" />
    <glyph glyph-name="x" unicode="x" horiz-adv-x="1024" 
d="M-41 0l387 543l-270 547h309l137 -326l197 326h315l-372 -549l276 -541h-311l-135 315l-197 -315h-336z" />
    <glyph glyph-name="y" unicode="y" horiz-adv-x="1024" 
d="M240 78l-142 1012h285l70 -791h4l319 791h303l-575 -1215q-40 -85 -72 -137.5t-75 -94.5t-96 -59.5t-124 -17.5q-53 0 -127 16l27 232q6 0 36 -3.5t46 -3.5q67 0 100 38.5t33 103.5q0 43 -12 129z" />
    <glyph glyph-name="z" unicode="z" horiz-adv-x="1024" 
d="M156 1090h811l-33 -222l-541 -637h520l-43 -231h-866l37 215l532 643h-456z" />
    <glyph glyph-name="braceleft" unicode="{" horiz-adv-x="796" 
d="M-29 463l31 188q25 0 55.5 6.5t66 20.5t62 43.5t33.5 69.5l72 413q22 132 110.5 199t216.5 67h207l-28 -172h-113q-37 0 -63.5 -12t-41 -34t-21 -41.5t-11.5 -45.5l-70 -395q-31 -167 -250 -211v-4q21 0 41.5 -2.5t47.5 -12t46.5 -25.5t33.5 -45t14 -67q0 -35 -9 -81
l-63 -363q-6 -30 -6 -61q0 -35 24.5 -58.5t75.5 -23.5h107l-29 -172h-211q-105 0 -171.5 50.5t-66.5 141.5q0 46 13 113l61 340q4 23 4 51q0 34 -18.5 60t-46.5 38.5t-54 18.5t-49 6z" />
    <glyph glyph-name="bar" unicode="|" horiz-adv-x="573" 
d="M172 -438v2048h229v-2048h-229z" />
    <glyph glyph-name="braceright" unicode="}" horiz-adv-x="796" 
d="M803 651l-31 -188q-25 0 -55.5 -6.5t-66 -20.5t-62 -43t-33.5 -69l-72 -414q-22 -132 -110.5 -199t-216.5 -67h-207l28 172h113q37 0 63.5 12t41 34t21 41.5t11.5 45.5l70 395q31 167 250 211v4q-27 0 -53.5 5.5t-58 19.5t-51 47t-19.5 80q0 41 8 82l63 362q6 30 6 62
q0 35 -24.5 58t-75.5 23h-106l28 172h211q105 0 171.5 -50.5t66.5 -141.5q0 -46 -13 -113l-61 -340q-4 -23 -4 -51q0 -34 18.5 -60t46.5 -38.5t54 -18.5t49 -6z" />
    <glyph glyph-name="asciitilde" unicode="~" horiz-adv-x="1228" 
d="M1014 711l73 -199q-23 -32 -38.5 -52t-41 -46.5t-49.5 -41t-57 -25.5t-70 -11q-85 0 -208 67q-125 70 -236 70q-61 0 -101.5 -40.5t-70.5 -106.5l-74 200q92 176 256 176q83 0 228 -65q8 -3 44 -19t49 -21.5t39 -15t43.5 -13t33.5 -3.5q29 0 55 11.5t49 35.5t38.5 44.5
t37.5 54.5z" />
    <glyph glyph-name="uni00A0" unicode="&#xa0;" horiz-adv-x="569" 
 />
    <glyph glyph-name="exclamdown" unicode="&#xa1;" horiz-adv-x="681" 
d="M362 801l62 289h299l-61 -289h-300zM182 -6l230 688h151l-65 -688l-80 -375h-316z" />
    <glyph glyph-name="cent" unicode="&#xa2;" horiz-adv-x="1138" 
d="M408 240l202 651q-2 2 -10 2q-124 0 -198 -120.5t-74 -315.5q0 -156 80 -217zM768 387h289q-33 -188 -170 -304t-340 -116q-61 0 -105 8l-65 -211h-117l74 238q-142 51 -215.5 174t-73.5 309q0 89 17.5 174.5t60.5 170.5t106.5 149t164.5 103.5t227 39.5q21 0 61 -4
l57 187h113l-64 -207q131 -40 211 -139.5t86 -249.5h-294q-6 105 -74 153l-205 -661q12 -4 39 -4q153 0 217 190z" />
    <glyph glyph-name="sterling" unicode="&#xa3;" horiz-adv-x="1138" 
d="M1102 985h-262q0 5 4 34t4 40q0 87 -42.5 136.5t-129.5 49.5q-100 0 -154.5 -71.5t-54.5 -178.5q0 -43 14.5 -119t16.5 -102h313l-23 -143h-280q0 -123 -38 -211.5t-142 -192.5v-4q115 21 166 21q52 0 142 -23.5t134 -23.5q22 0 43.5 3t35 5.5t37 12t30.5 12.5t37 18
l36 18l-37 -237q-107 -58 -209 -58q-75 0 -208.5 43t-208.5 43q-67 0 -142 -32t-108 -58l-33 213q56 40 90 70.5t65.5 71.5t45.5 91t14 113q0 51 -12 105h-191l21 143h145q-24 94 -24 205q0 229 131.5 355t363.5 126q80 0 152.5 -22t133 -66t96.5 -118.5t36 -170.5
q0 -43 -8 -98z" />
    <glyph glyph-name="currency" unicode="&#xa4;" horiz-adv-x="1138" 
d="M600 500q94 0 153.5 66.5t59.5 164.5t-59.5 162.5t-153.5 64.5t-151.5 -64.5t-57.5 -162.5q0 -99 58 -165t151 -66zM25 291l200 201q-63 102 -63 239q0 65 18 129t45 107l-200 200l135 136l200 -201q108 67 240 67q139 0 240 -67l200 201l136 -136l-201 -200
q67 -101 67 -236q0 -138 -67 -239l201 -201l-136 -135l-200 200q-101 -67 -240 -67q-132 0 -240 67l-200 -200z" />
    <glyph glyph-name="yen" unicode="&#xa5;" horiz-adv-x="1138" 
d="M1104 829l-25 -122h-276l-111 -154h355l-25 -123h-356l-91 -430h-260l91 430h-355l25 123h354l-49 154h-272l24 122h207l-193 601h308l170 -603l407 603h291l-432 -601h213z" />
    <glyph glyph-name="brokenbar" unicode="&#xa6;" horiz-adv-x="573" 
d="M172 -182v512h229v-512h-229zM172 842v512h229v-512h-229z" />
    <glyph glyph-name="section" unicode="&#xa7;" horiz-adv-x="1138" 
d="M63 6h254q19 -149 164 -149q69 0 112.5 35.5t43.5 101.5q0 30 -15.5 52.5t-56.5 55.5l-309 246q-156 124 -156 279q0 119 73 196t196 101q-105 105 -105 219q0 45 12.5 91.5t44 96.5t79 88t125 63t173.5 25q178 0 277.5 -91.5t99.5 -241.5v-41h-254v16q0 68 -38 106.5
t-107 38.5q-55 0 -98 -32t-43 -86t45 -93l327 -266q168 -135 168 -305q0 -210 -262 -295q94 -84 94 -213q0 -65 -31 -128.5t-86 -115.5t-140.5 -84t-186.5 -32q-110 0 -198.5 33.5t-145 108t-56.5 179.5v41zM727 604l-240 197q-58 -24 -87 -53.5t-29 -77.5q0 -60 86 -125
l241 -193q107 49 107 119q0 69 -78 133z" />
    <glyph glyph-name="dieresis" unicode="&#xa8;" horiz-adv-x="569" 
d="M432 1251l43 242h268l-43 -242h-268zM31 1251l43 242h268l-43 -242h-268z" />
    <glyph glyph-name="copyright" unicode="&#xa9;" horiz-adv-x="1638" 
d="M281 735q0 -174 75 -311t202 -211t282 -74q114 0 216 43.5t178 120.5t120.5 189.5t44.5 242.5q0 131 -44.5 243.5t-120.5 189t-178 120t-216 43.5q-155 0 -282 -73.5t-202 -210.5t-75 -312zM1231 895h-184q-6 22 -11 36t-20 38.5t-35 39.5t-55 26.5t-80 11.5
q-24 0 -49 -6t-56.5 -26t-55 -51.5t-40 -88.5t-16.5 -132q0 -142 58 -222.5t159 -80.5q44 0 79 12.5t54.5 28.5t35.5 42.5t21.5 41.5t12.5 39h182q-28 -159 -130.5 -241t-248.5 -82q-194 0 -301 124t-107 338q0 118 34 209.5t91.5 145t127.5 81t149 27.5q82 0 149 -21.5
t108.5 -54.5t70.5 -76t41.5 -82t15.5 -77zM68 735q0 157 61 300t164.5 246.5t246.5 164.5t300 61t300 -61t246.5 -164.5t164.5 -246.5t61 -300t-61 -300t-164.5 -246.5t-246.5 -164.5t-300 -61t-300 61t-246.5 164.5t-164.5 246.5t-61 300z" />
    <glyph glyph-name="ordfeminine" unicode="&#xaa;" horiz-adv-x="757" 
d="M948 1319l-76 -354q-19 -90 23 -101l-6 -26h-201q-5 35 0 77q-34 -27 -60.5 -44t-78.5 -33.5t-111 -16.5q-89 0 -143.5 48.5t-34.5 142.5q19 92 88 146t166 67l172 22q21 3 33.5 6t26 13.5t16.5 27.5q4 19 -1.5 33t-15.5 21t-28 11t-30.5 4.5t-31.5 0.5q-61 0 -90 -23.5
t-43 -60.5h-178q23 72 62 120t91.5 70.5t101 30.5t110.5 8q34 0 67 -4t70 -16.5t62 -32.5t37.5 -55.5t2.5 -81.5zM717 1075l16 82q-39 -23 -135 -35q-62 -9 -97.5 -30.5t-45.5 -69.5q-8 -39 13 -57.5t54 -18.5q65 0 123.5 36t71.5 93z" />
    <glyph glyph-name="guillemotleft" unicode="&#xab;" horiz-adv-x="1138" 
d="M100 473l41 203l410 289l-49 -242l-246 -172l178 -180l-45 -217zM539 473l41 203l409 289l-49 -242l-246 -172l178 -180l-45 -217z" />
    <glyph glyph-name="logicalnot" unicode="&#xac;" horiz-adv-x="1228" 
d="M903 178v451h-807v229h1037v-680h-230z" />
    <glyph glyph-name="uni00AD" unicode="&#xad;" horiz-adv-x="681" 
d="M47 440l39 267h502l-37 -267h-504z" />
    <glyph glyph-name="registered" unicode="&#xae;" horiz-adv-x="1003" 
d="M340 918v403h207q39 0 66.5 -12t40 -31t17.5 -36t5 -34q0 -34 -16.5 -61t-45.5 -37q29 -12 40.5 -31t11.5 -71q0 -49 2.5 -62.5t15.5 -17.5v-10h-94q-10 23 -10 79q0 45 -11.5 60.5t-54.5 15.5h-88v-155h-86zM426 1143h98q35 0 50.5 12.5t15.5 42.5q0 53 -60 53h-104
v-108zM502 1421q-119 0 -199 -83.5t-80 -217.5q0 -133 80 -216t199 -83q118 0 199 83.5t81 215.5q0 134 -81 217.5t-199 83.5zM117 1120q0 160 112.5 273.5t272.5 113.5t273.5 -113.5t113.5 -273.5t-113.5 -272.5t-273.5 -112.5t-272.5 112.5t-112.5 272.5z" />
    <glyph glyph-name="macron" unicode="&#xaf;" horiz-adv-x="569" 
d="M27 1296l22 152h694l-22 -152h-694z" />
    <glyph glyph-name="degree" unicode="&#xb0;" horiz-adv-x="819" 
d="M117 1169q0 121 85.5 207t207.5 86q121 0 206.5 -85.5t85.5 -207.5q0 -121 -85 -206.5t-207 -85.5t-207.5 85.5t-85.5 206.5zM231 1169q0 -73 52.5 -125.5t126.5 -52.5t126 52.5t52 125.5q0 74 -52.5 126.5t-125.5 52.5q-74 0 -126.5 -53t-52.5 -126z" />
    <glyph glyph-name="plusminus" unicode="&#xb1;" horiz-adv-x="1228" 
d="M500 780v256h229v-256h404v-229h-404v-258h-229v258h-404v229h404zM96 0v229h1037v-229h-1037z" />
    <glyph glyph-name="two.superior" unicode="&#xb2;" horiz-adv-x="681" 
d="M453 1143h-181q17 81 54.5 141.5t78.5 91.5t91.5 50t84 23.5t66.5 4.5q140 0 215.5 -74t48.5 -202q-39 -178 -239 -285q-185 -100 -230 -145h381l-37 -168h-645q13 47 27.5 81t45 81t83.5 93t129 91q167 98 223 144t70 114q0 2 2 5.5t2 4.5q7 36 -19 67t-83 31
q-37 0 -66.5 -11.5t-46 -26t-29 -38.5t-17 -38t-9.5 -35z" />
    <glyph glyph-name="three.superior" unicode="&#xb3;" horiz-adv-x="681" 
d="M457 1174h-174q27 128 122.5 204t249.5 76q51 0 97 -13t85.5 -39.5t56.5 -76t3 -115.5q-14 -64 -57 -107.5t-92 -60.5v-4q10 -2 20.5 -7t25.5 -15.5t26 -25t21 -37t10.5 -51t-5.5 -66.5q-26 -123 -132.5 -202t-248.5 -79q-16 0 -31 1t-36.5 3t-41 7.5t-41 13t-39.5 19.5
t-35 27t-28.5 37t-18 48t-6 60.5t8.5 74.5h182q-29 -137 108 -137q132 0 158 127q7 34 -1.5 57.5t-24 35.5t-45.5 18.5t-51.5 7.5t-55.5 1l29 131h30q19 0 30.5 0.5t32.5 3.5t35.5 10t30.5 18.5t26.5 31t16.5 45.5q20 104 -88 104q-44 0 -76 -15.5t-47.5 -40t-21 -40
t-8.5 -30.5z" />
    <glyph glyph-name="acute" unicode="&#xb4;" horiz-adv-x="569" 
d="M238 1251l208 295h326l-330 -295h-204z" />
    <glyph glyph-name="mu" unicode="&#xb5;" horiz-adv-x="1228" 
d="M-72 -432l303 1425h232l-94 -438q-31 -159 -31 -215q0 -166 166 -166q45 0 83.5 14t66 35t51 55.5t38.5 63.5t28.5 72.5t20 70t15.5 66.5l94 444h232l-213 -995h-201l29 129q-58 -72 -117 -109.5t-156 -37.5q-47 0 -83 9t-61 27.5t-37 32t-28 35.5l-108 -518h-230z" />
    <glyph glyph-name="paragraph" unicode="&#xb6;" 
d="M289 -319l221 1067q-216 0 -315.5 94t-65.5 260q17 85 55.5 149.5t90 105.5t122 67t144.5 36t164 10h620l-371 -1789h-229l336 1615h-207l-336 -1615h-229z" />
    <glyph glyph-name="periodcentered" unicode="&#xb7;" horiz-adv-x="569" 
d="M100 451l60 307h309l-59 -307h-310z" />
    <glyph glyph-name="cedilla" unicode="&#xb8;" horiz-adv-x="681" 
d="M70 -172l153 172h117l-102 -113q40 9 63 9q25 0 51 -7.5t52.5 -24t38.5 -50t3 -78.5q-20 -90 -102 -146.5t-194 -56.5q-58 0 -103 10t-123 41l66 99q101 -33 151 -33q36 0 71 22t42 58q7 34 -12 53.5t-52 19.5q-28 0 -86 -16z" />
    <glyph glyph-name="one.superior" unicode="&#xb9;" horiz-adv-x="681" 
d="M303 1176l27 127h26q122 0 185 45t80 106h174l-187 -874h-207l127 596h-225z" />
    <glyph glyph-name="ordmasculine" unicode="&#xba;" horiz-adv-x="747" 
d="M985 1165q-13 -62 -46.5 -121t-85.5 -110t-131.5 -82t-172.5 -31q-63 0 -114 14.5t-84 39.5t-56.5 58.5t-32 72t-10.5 79t8 80.5q13 62 46.5 121t85.5 110t131.5 82t172.5 31q63 0 114 -14.5t84 -39.5t56.5 -58.5t32 -72t10.5 -79.5t-8 -80zM784 1165q18 83 -13.5 140
t-106.5 57t-130 -56.5t-73 -140.5q-18 -83 14 -139.5t107 -56.5t129.5 56t72.5 140z" />
    <glyph glyph-name="guillemotright" unicode="&#xbb;" horiz-adv-x="1138" 
d="M539 154l49 241l246 172l-179 181l45 217l289 -320l-41 -203zM100 154l50 241l245 172l-178 181l45 217l289 -320l-41 -203z" />
    <glyph glyph-name="onequarter" unicode="&#xbc;" horiz-adv-x="1708" 
d="M1112 322h236q19 90 40 180t31.5 136.5t12.5 57.5h-5zM1651 868l-115 -542h102l-30 -142h-103l-39 -184h-194l39 184h-375l33 152l461 532h221zM270 -39l1194 1493h160l-1192 -1493h-162zM303 1176l27 127h26q122 0 185 45t80 106h174l-187 -874h-207l127 596h-225z" />
    <glyph glyph-name="onehalf" unicode="&#xbd;" horiz-adv-x="1708" 
d="M270 -39l1194 1493h160l-1192 -1493h-162zM303 1176l27 127h26q122 0 185 45t80 106h174l-187 -874h-207l127 596h-225zM1290 563h-180q13 59 36 107t50.5 79.5t61.5 55.5t64.5 36.5t64 20.5t56 10t44.5 2q140 0 215.5 -74t48.5 -202q-39 -178 -240 -285
q-179 -96 -231 -145h381l-35 -168h-645q13 47 27.5 81t45 81t83.5 93t129 91q167 98 223 144t70 114q0 2 2 5.5t2 4.5q7 36 -19.5 67.5t-83.5 31.5q-37 0 -66.5 -12t-45.5 -25.5t-30 -39.5t-17.5 -37.5t-10.5 -35.5z" />
    <glyph glyph-name="threequarters" unicode="&#xbe;" horiz-adv-x="1708" 
d="M1497 868h221l-114 -542h102l-31 -142h-102l-39 -184h-195l39 184h-374l32 152zM1180 326h229q18 89 38 177.5t30.5 133t11.5 51.5h-4zM1554 1454h160l-1192 -1493h-162zM473 1174h-174q27 128 122.5 204t250.5 76q51 0 97 -13t85 -39.5t56 -76t3 -115.5
q-14 -64 -57 -107.5t-92 -60.5v-4q10 -2 20.5 -7t25.5 -15.5t26 -25t21 -37t10.5 -51t-5.5 -66.5q-26 -123 -132.5 -202t-248.5 -79q-16 0 -31 1t-36.5 3t-41 7.5t-41 13t-39.5 19.5t-35 27t-28.5 37t-18 48t-6 60.5t8.5 74.5h182q-4 -17 -5 -32.5t3 -35.5t15.5 -34.5
t35.5 -24.5t60 -10q132 0 158 127q7 34 -1.5 57.5t-24.5 35.5t-46 18.5t-51.5 7.5t-55.5 1l29 131h31q19 0 30.5 0.5t32.5 3.5t35.5 10t30.5 18.5t26.5 31t16.5 45.5q20 104 -88 104q-36 0 -64.5 -11.5t-43.5 -26t-26 -34.5t-14.5 -31.5t-5.5 -22.5z" />
    <glyph glyph-name="questiondown" unicode="&#xbf;" 
d="M627 664h270q-18 -82 -34.5 -130.5t-48.5 -100t-82.5 -93.5t-131.5 -92q-148 -89 -170 -203q-10 -60 -2.5 -99t35 -62.5t58 -32.5t65.5 -9q53 0 96 16t69.5 38.5t49 58t33 61.5t22.5 62v2h289q-22 -103 -69.5 -186t-107.5 -136.5t-132.5 -90t-142.5 -51.5t-140 -15
q-50 0 -102 6t-126.5 32.5t-125.5 70t-76.5 128.5t-1.5 199q25 117 102.5 201t225.5 176q83 51 119.5 98.5t58.5 151.5zM635 801l61 289h299l-61 -289h-299z" />
    <glyph glyph-name="Agrave" unicode="&#xc0;" horiz-adv-x="1478" 
d="M530 303l-165 -303h-324l838 1470h354l205 -1470h-334l-31 303h-543zM979 1139l-311 -582h374l-59 582h-4zM997 1618l-237 299h315l129 -299h-207z" />
    <glyph glyph-name="Aacute" unicode="&#xc1;" horiz-adv-x="1478" 
d="M530 303l-165 -303h-324l838 1470h354l205 -1470h-334l-31 303h-543zM979 1139l-311 -582h374l-59 582h-4zM1536 1917l-365 -299h-206l256 299h315z" />
    <glyph glyph-name="Acircumflex" unicode="&#xc2;" horiz-adv-x="1478" 
d="M530 303l-165 -303h-324l838 1470h354l205 -1470h-334l-31 303h-543zM979 1139l-311 -582h374l-59 582h-4zM1276 1917l170 -299h-232l-96 168l-164 -168h-231l297 299h256z" />
    <glyph glyph-name="Atilde" unicode="&#xc3;" horiz-adv-x="1478" 
d="M530 303l-165 -303h-324l838 1470h354l205 -1470h-334l-31 303h-543zM979 1139l-311 -582h374l-59 582h-4zM1384 1890h134q-9 -25 -21 -49.5t-37 -62.5t-53.5 -65t-72 -47.5t-91.5 -20.5q-56 0 -149 32q-18 6 -51.5 18.5t-52 17.5t-34.5 5q-76 0 -114 -88h-131
q36 93 92 156q92 96 209 96q33 0 59 -8t80 -31q86 -35 121 -35q79 0 112 82z" />
    <glyph glyph-name="Adieresis" unicode="&#xc4;" horiz-adv-x="1478" 
d="M530 303l-165 -303h-324l838 1470h354l205 -1470h-334l-31 303h-543zM979 1139l-311 -582h374l-59 582h-4zM1067 1874l-49 -236h-258l49 236h258zM1466 1874l-49 -236h-258l49 236h258z" />
    <glyph glyph-name="Aring" unicode="&#xc5;" horiz-adv-x="1478" 
d="M530 303l-165 -303h-324l838 1470h354l205 -1470h-334l-31 303h-543zM979 1139l-311 -582h374l-59 582h-4zM1335 1757q-19 -92 -101.5 -152.5t-164.5 -60.5t-138.5 60.5t-37.5 152.5q21 92 102.5 152.5t163.5 60.5q52 0 97 -25.5t69 -76t10 -111.5zM1221 1757
q10 44 -15 75.5t-69 31.5t-81 -31t-48 -76q-9 -44 15.5 -75t68.5 -31t82 31t47 75z" />
    <glyph glyph-name="AE" unicode="&#xc6;" horiz-adv-x="2048" 
d="M1317 641l-82 -381h774l-55 -260h-1075l67 313h-440l-174 -313h-322l850 1470h1393l-55 -260h-760l-66 -309h684l-55 -260h-684zM637 555h360l140 655h-133z" />
    <glyph glyph-name="Ccedilla" unicode="&#xc7;" horiz-adv-x="1478" 
d="M1200 504h307q-98 -242 -280 -386.5t-436 -154.5l-70 -76q40 9 63 9q25 0 51 -7.5t53 -24t39 -50t3 -78.5q-20 -90 -102.5 -146.5t-194.5 -56.5q-58 0 -102.5 10t-122.5 41l65 99q101 -33 152 -33q36 0 70.5 22t41.5 58q7 34 -11.5 53.5t-51.5 19.5q-28 0 -86 -16l-35 41
l119 137q-172 18 -283 109.5t-152 257t9 401.5q32 151 93 277.5t141 218t178.5 155t206.5 94.5t222 31q127 0 226 -33.5t158 -87t95 -123t45.5 -139t0.5 -137.5h-307q-2 26 -3.5 42.5t-8.5 46t-17.5 49t-31 43.5t-48 38.5t-70 24.5t-94.5 10q-48 0 -97.5 -13t-107 -48.5
t-106.5 -91t-93 -149t-69 -212.5q-18 -81 -20.5 -153.5t12 -137t46.5 -111t88 -73.5t132 -27q128 0 228 71.5t155 205.5z" />
    <glyph glyph-name="Egrave" unicode="&#xc8;" horiz-adv-x="1366" 
d="M1550 1470l-55 -260h-780l-66 -309h717l-55 -260h-717l-82 -381h815l-55 -260h-1116l313 1470h1081zM940 1618l-238 299h316l129 -299h-207z" />
    <glyph glyph-name="Eacute" unicode="&#xc9;" horiz-adv-x="1366" 
d="M1550 1470l-55 -260h-780l-66 -309h717l-55 -260h-717l-82 -381h815l-55 -260h-1116l313 1470h1081zM1479 1917l-365 -299h-207l256 299h316z" />
    <glyph glyph-name="Ecircumflex" unicode="&#xca;" horiz-adv-x="1366" 
d="M1550 1470l-55 -260h-780l-66 -309h717l-55 -260h-717l-82 -381h815l-55 -260h-1116l313 1470h1081zM1219 1917l170 -299h-232l-96 168l-164 -168h-231l297 299h256z" />
    <glyph glyph-name="Edieresis" unicode="&#xcb;" horiz-adv-x="1366" 
d="M1550 1470l-55 -260h-780l-66 -309h717l-55 -260h-717l-82 -381h815l-55 -260h-1116l313 1470h1081zM1010 1874l-49 -236h-259l50 236h258zM1409 1874l-49 -236h-258l49 236h258z" />
    <glyph glyph-name="Igrave" unicode="&#xcc;" horiz-adv-x="569" 
d="M752 1470l-314 -1470h-307l313 1470h308zM543 1618l-238 299h316l129 -299h-207z" />
    <glyph glyph-name="Iacute" unicode="&#xcd;" horiz-adv-x="569" 
d="M752 1470l-314 -1470h-307l313 1470h308zM1081 1917l-364 -299h-207l256 299h315z" />
    <glyph glyph-name="Icircumflex" unicode="&#xce;" horiz-adv-x="569" 
d="M752 1470l-314 -1470h-307l313 1470h308zM821 1917l170 -299h-231l-96 168l-164 -168h-232l297 299h256z" />
    <glyph glyph-name="Idieresis" unicode="&#xcf;" horiz-adv-x="569" 
d="M752 1470l-314 -1470h-307l313 1470h308zM612 1874l-49 -236h-258l49 236h258zM1012 1874l-49 -236h-258l49 236h258z" />
    <glyph glyph-name="Eth" unicode="&#xd0;" horiz-adv-x="1478" 
d="M293 647h-166l55 254h166l121 569h649q103 0 184 -24.5t132.5 -65t86.5 -98.5t50.5 -119.5t18.5 -132.5t-3 -133.5t-20 -126.5q-15 -71 -38.5 -142t-60 -148.5t-81.5 -145.5t-107 -130t-133 -106.5t-162 -71t-192 -26.5h-637zM715 1217l-66 -316h340l-55 -254h-340
l-84 -393h299q90 0 166.5 42.5t129 115t88.5 156.5t56 180q19 90 22 162.5t-6 120.5t-30.5 83.5t-46 54.5t-58 30.5t-60.5 14.5t-60 3h-295z" />
    <glyph glyph-name="Ntilde" unicode="&#xd1;" horiz-adv-x="1478" 
d="M1147 446l219 1024h287l-314 -1470h-307l-377 1049h-4l-223 -1049h-287l314 1470h323l365 -1024h4zM1384 1890h134q-9 -25 -21 -49.5t-37 -62.5t-53.5 -65t-72 -47.5t-91.5 -20.5q-56 0 -149 32q-18 6 -51.5 18.5t-52 17.5t-34.5 5q-76 0 -114 -88h-131q36 93 92 156
q92 96 209 96q33 0 59 -8t80 -31q86 -35 121 -35q79 0 112 82z" />
    <glyph glyph-name="Ograve" unicode="&#xd2;" horiz-adv-x="1593" 
d="M246 735q30 142 84.5 259.5t118 196t141.5 138.5t149 93t147 53.5t129.5 27t102.5 6.5q37 0 75 -3.5t88.5 -14.5t96.5 -29t94 -49t86.5 -71t69 -99.5t45.5 -131t12.5 -168t-26.5 -208.5q-30 -142 -84 -259.5t-117.5 -196t-141.5 -138.5t-149 -93t-147 -53.5t-129.5 -27
t-102.5 -6.5q-37 0 -75 3.5t-88.5 14.5t-96.5 29t-94 49t-86 71t-69 99.5t-46 131t-12.5 168t25.5 208.5zM553 735q-18 -86 -19.5 -158t10.5 -124t35.5 -93t53 -66.5t66 -42.5t72 -23.5t73.5 -6.5q54 0 108.5 13.5t117 49.5t114.5 91.5t97.5 148.5t70.5 211q18 86 20 158
t-9.5 124t-35 93t-53 66.5t-66 42.5t-72 23.5t-73.5 6.5q-54 0 -108.5 -13.5t-117 -49.5t-115 -91.5t-98.5 -148.5t-71 -211zM1055 1618l-238 299h316l129 -299h-207z" />
    <glyph glyph-name="Oacute" unicode="&#xd3;" horiz-adv-x="1593" 
d="M246 735q30 142 84.5 259.5t118 196t141.5 138.5t149 93t147 53.5t129.5 27t102.5 6.5q37 0 75 -3.5t88.5 -14.5t96.5 -29t94 -49t86.5 -71t69 -99.5t45.5 -131t12.5 -168t-26.5 -208.5q-30 -142 -84 -259.5t-117.5 -196t-141.5 -138.5t-149 -93t-147 -53.5t-129.5 -27
t-102.5 -6.5q-37 0 -75 3.5t-88.5 14.5t-96.5 29t-94 49t-86 71t-69 99.5t-46 131t-12.5 168t25.5 208.5zM553 735q-18 -86 -19.5 -158t10.5 -124t35.5 -93t53 -66.5t66 -42.5t72 -23.5t73.5 -6.5q54 0 108.5 13.5t117 49.5t114.5 91.5t97.5 148.5t70.5 211q18 86 20 158
t-9.5 124t-35 93t-53 66.5t-66 42.5t-72 23.5t-73.5 6.5q-54 0 -108.5 -13.5t-117 -49.5t-115 -91.5t-98.5 -148.5t-71 -211zM1593 1917l-364 -299h-207l256 299h315z" />
    <glyph glyph-name="Ocircumflex" unicode="&#xd4;" horiz-adv-x="1593" 
d="M246 735q30 142 84.5 259.5t118 196t141.5 138.5t149 93t147 53.5t129.5 27t102.5 6.5q37 0 75 -3.5t88.5 -14.5t96.5 -29t94 -49t86.5 -71t69 -99.5t45.5 -131t12.5 -168t-26.5 -208.5q-30 -142 -84 -259.5t-117.5 -196t-141.5 -138.5t-149 -93t-147 -53.5t-129.5 -27
t-102.5 -6.5q-37 0 -75 3.5t-88.5 14.5t-96.5 29t-94 49t-86 71t-69 99.5t-46 131t-12.5 168t25.5 208.5zM553 735q-18 -86 -19.5 -158t10.5 -124t35.5 -93t53 -66.5t66 -42.5t72 -23.5t73.5 -6.5q54 0 108.5 13.5t117 49.5t114.5 91.5t97.5 148.5t70.5 211q18 86 20 158
t-9.5 124t-35 93t-53 66.5t-66 42.5t-72 23.5t-73.5 6.5q-54 0 -108.5 -13.5t-117 -49.5t-115 -91.5t-98.5 -148.5t-71 -211zM1333 1917l170 -299h-231l-96 168l-164 -168h-232l297 299h256z" />
    <glyph glyph-name="Otilde" unicode="&#xd5;" horiz-adv-x="1593" 
d="M246 735q30 142 84.5 259.5t118 196t141.5 138.5t149 93t147 53.5t129.5 27t102.5 6.5q37 0 75 -3.5t88.5 -14.5t96.5 -29t94 -49t86.5 -71t69 -99.5t45.5 -131t12.5 -168t-26.5 -208.5q-30 -142 -84 -259.5t-117.5 -196t-141.5 -138.5t-149 -93t-147 -53.5t-129.5 -27
t-102.5 -6.5q-37 0 -75 3.5t-88.5 14.5t-96.5 29t-94 49t-86 71t-69 99.5t-46 131t-12.5 168t25.5 208.5zM553 735q-18 -86 -19.5 -158t10.5 -124t35.5 -93t53 -66.5t66 -42.5t72 -23.5t73.5 -6.5q54 0 108.5 13.5t117 49.5t114.5 91.5t97.5 148.5t70.5 211q18 86 20 158
t-9.5 124t-35 93t-53 66.5t-66 42.5t-72 23.5t-73.5 6.5q-54 0 -108.5 -13.5t-117 -49.5t-115 -91.5t-98.5 -148.5t-71 -211zM1442 1890h133q-9 -25 -21 -49.5t-37 -62.5t-53.5 -65t-72 -47.5t-91.5 -20.5q-56 0 -149 32q-19 6 -51.5 18.5t-51 17.5t-34.5 5q-77 0 -115 -88
h-131q36 93 92 156q92 96 209 96q33 0 59 -8t80 -31q86 -35 121 -35q80 0 113 82z" />
    <glyph glyph-name="Odieresis" unicode="&#xd6;" horiz-adv-x="1593" 
d="M246 735q30 142 84.5 259.5t118 196t141.5 138.5t149 93t147 53.5t129.5 27t102.5 6.5q37 0 75 -3.5t88.5 -14.5t96.5 -29t94 -49t86.5 -71t69 -99.5t45.5 -131t12.5 -168t-26.5 -208.5q-30 -142 -84 -259.5t-117.5 -196t-141.5 -138.5t-149 -93t-147 -53.5t-129.5 -27
t-102.5 -6.5q-37 0 -75 3.5t-88.5 14.5t-96.5 29t-94 49t-86 71t-69 99.5t-46 131t-12.5 168t25.5 208.5zM553 735q-18 -86 -19.5 -158t10.5 -124t35.5 -93t53 -66.5t66 -42.5t72 -23.5t73.5 -6.5q54 0 108.5 13.5t117 49.5t114.5 91.5t97.5 148.5t70.5 211q18 86 20 158
t-9.5 124t-35 93t-53 66.5t-66 42.5t-72 23.5t-73.5 6.5q-54 0 -108.5 -13.5t-117 -49.5t-115 -91.5t-98.5 -148.5t-71 -211zM1124 1874l-49 -236h-258l49 236h258zM1524 1874l-49 -236h-258l49 236h258z" />
    <glyph glyph-name="multiply" unicode="&#xd7;" horiz-adv-x="1196" 
d="M547 518l-279 354l195 162l280 -354l428 354l129 -162l-430 -354l281 -354l-199 -162l-278 354l-428 -354l-129 162z" />
    <glyph glyph-name="Oslash" unicode="&#xd8;" horiz-adv-x="1593" 
d="M1831 1448l-211 -188q109 -193 39 -525q-30 -142 -84 -259.5t-117.5 -196t-141.5 -138.5t-149 -93t-147 -53.5t-129.5 -27t-102.5 -6.5q-48 0 -98 6.5t-111.5 23t-122.5 52t-108 86.5l-207 -184l-69 78l215 190q-110 197 -41 522q30 142 84.5 259.5t118 196t141.5 138.5
t149 93t147 53.5t129.5 27t102.5 6.5q47 0 97 -7t111.5 -23.5t122 -51.5t107.5 -84l205 183zM547 446l768 682q-83 121 -252 121q-54 0 -108.5 -13.5t-117 -49.5t-115 -91.5t-98.5 -148.5t-71 -211q-35 -173 -6 -289zM1356 1026l-766 -682q43 -64 111 -93.5t143 -29.5
q54 0 108.5 13.5t117 49.5t114.5 91.5t97.5 148.5t70.5 211q40 183 4 291z" />
    <glyph glyph-name="Ugrave" unicode="&#xd9;" horiz-adv-x="1478" 
d="M1647 1470l-205 -956q-60 -282 -246.5 -417.5t-474.5 -135.5q-78 0 -150.5 13t-152.5 55t-127 110q-82 125 -39 357l209 974h313l-203 -954q-32 -146 26 -220.5t173 -74.5q298 0 356 281l207 968h314zM997 1618l-237 299h315l129 -299h-207z" />
    <glyph glyph-name="Uacute" unicode="&#xda;" horiz-adv-x="1478" 
d="M1647 1470l-205 -956q-60 -282 -246.5 -417.5t-474.5 -135.5q-78 0 -150.5 13t-152.5 55t-127 110q-82 125 -39 357l209 974h313l-203 -954q-32 -146 26 -220.5t173 -74.5q298 0 356 281l207 968h314zM1536 1917l-365 -299h-206l256 299h315z" />
    <glyph glyph-name="Ucircumflex" unicode="&#xdb;" horiz-adv-x="1478" 
d="M1647 1470l-205 -956q-60 -282 -246.5 -417.5t-474.5 -135.5q-78 0 -150.5 13t-152.5 55t-127 110q-82 125 -39 357l209 974h313l-203 -954q-32 -146 26 -220.5t173 -74.5q298 0 356 281l207 968h314zM1276 1917l170 -299h-232l-96 168l-164 -168h-231l297 299h256z" />
    <glyph glyph-name="Udieresis" unicode="&#xdc;" horiz-adv-x="1478" 
d="M1647 1470l-205 -956q-60 -282 -246.5 -417.5t-474.5 -135.5q-78 0 -150.5 13t-152.5 55t-127 110q-82 125 -39 357l209 974h313l-203 -954q-32 -146 26 -220.5t173 -74.5q298 0 356 281l207 968h314zM1067 1874l-49 -236h-258l49 236h258zM1466 1874l-49 -236h-258
l49 236h258z" />
    <glyph glyph-name="Yacute" unicode="&#xdd;" horiz-adv-x="1366" 
d="M963 551l-117 -551h-307l118 555l-313 915h363l167 -639l429 639h348zM1479 1917l-365 -299h-207l256 299h316z" />
    <glyph glyph-name="Thorn" unicode="&#xde;" horiz-adv-x="1366" 
d="M156 0l313 1470h307l-43 -200h365q212 0 306 -128.5t48 -346.5q-6 -32 -19 -68t-36.5 -82.5t-54.5 -90t-77 -85.5t-99.5 -73.5t-126.5 -50.5t-154 -19h-353l-69 -326h-307zM586 580h284q65 0 115.5 18.5t77.5 42t47.5 60.5t26.5 57.5t12 50.5q23 108 -31 157.5t-196 49.5
h-244z" />
    <glyph glyph-name="germandbls" unicode="&#xdf;" 
d="M567 -16l49 225q18 -2 58 -2q268 0 323 254q8 37 8 68.5t-5.5 54.5t-20 42t-28.5 31t-37.5 21.5t-41 15t-46 9.5t-45 5t-44.5 3l41 198q38 1 57.5 3t53 7t53.5 16.5t43 30.5t38 49.5t24 71.5q6 26 6 48.5t-5 39.5t-12.5 30.5t-19.5 23t-23.5 16.5t-26.5 11t-26 7t-25 3.5
t-20.5 1t-15.5 0.5q-31 0 -63 -9t-64.5 -29t-57.5 -57.5t-35 -87.5l-231 -1085h-287l236 1104q17 79 60 148.5t111 125t168 87.5t220 32q24 0 47 -1t55 -4.5t60.5 -10.5t60.5 -17.5t58 -27t51 -38t41.5 -51.5t27 -66t10 -83.5t-11.5 -101.5q-19 -88 -76.5 -155.5
t-128.5 -98.5q56 -28 93.5 -66t53.5 -74.5t20 -82.5t0.5 -78t-11.5 -72q-16 -73 -46 -141.5t-81.5 -134.5t-118 -114.5t-160 -78t-202.5 -29.5q-35 0 -111 13z" />
    <glyph glyph-name="agrave" unicode="&#xe0;" horiz-adv-x="1138" 
d="M1186 803l-125 -590q-15 -62 -12 -98.5t11.5 -50.5t26.5 -21l-8 -43h-309q-7 59 0 129q-31 -27 -52.5 -43.5t-61 -41t-75.5 -38.5t-88 -24.5t-108 -10.5q-64 0 -117 18t-94 56.5t-54.5 99t1.5 144.5q32 153 137 240t254 108l266 39q105 13 119 86q7 20 4 36t-5 28.5
t-12.5 22t-18.5 16t-23 11t-26 7.5t-27.5 4t-27.5 1.5t-26 0.5q-159 0 -207 -152h-276q25 81 61.5 144t82 103.5t94 68t107 41t109.5 19t113 5.5q53 0 103.5 -6.5t108 -27.5t96 -54t57 -91.5t2.5 -135.5zM819 391l29 139q-52 -36 -207 -59q-38 -6 -64.5 -12.5t-56 -19
t-49.5 -29t-36 -42.5t-23 -61q-11 -47 5 -78t42 -42t57 -11q101 0 191.5 60t111.5 155zM745 1237l-237 299h315l129 -299h-207z" />
    <glyph glyph-name="aacute" unicode="&#xe1;" horiz-adv-x="1138" 
d="M1186 803l-125 -590q-15 -62 -12 -98.5t11.5 -50.5t26.5 -21l-8 -43h-309q-7 59 0 129q-31 -27 -52.5 -43.5t-61 -41t-75.5 -38.5t-88 -24.5t-108 -10.5q-64 0 -117 18t-94 56.5t-54.5 99t1.5 144.5q32 153 137 240t254 108l266 39q105 13 119 86q7 20 4 36t-5 28.5
t-12.5 22t-18.5 16t-23 11t-26 7.5t-27.5 4t-27.5 1.5t-26 0.5q-159 0 -207 -152h-276q25 81 61.5 144t82 103.5t94 68t107 41t109.5 19t113 5.5q53 0 103.5 -6.5t108 -27.5t96 -54t57 -91.5t2.5 -135.5zM819 391l29 139q-52 -36 -207 -59q-38 -6 -64.5 -12.5t-56 -19
t-49.5 -29t-36 -42.5t-23 -61q-11 -47 5 -78t42 -42t57 -11q101 0 191.5 60t111.5 155zM1284 1536l-364 -299h-207l256 299h315z" />
    <glyph glyph-name="acircumflex" unicode="&#xe2;" horiz-adv-x="1138" 
d="M1186 803l-125 -590q-15 -62 -12 -98.5t11.5 -50.5t26.5 -21l-8 -43h-309q-7 59 0 129q-31 -27 -52.5 -43.5t-61 -41t-75.5 -38.5t-88 -24.5t-108 -10.5q-64 0 -117 18t-94 56.5t-54.5 99t1.5 144.5q32 153 137 240t254 108l266 39q105 13 119 86q7 20 4 36t-5 28.5
t-12.5 22t-18.5 16t-23 11t-26 7.5t-27.5 4t-27.5 1.5t-26 0.5q-159 0 -207 -152h-276q25 81 61.5 144t82 103.5t94 68t107 41t109.5 19t113 5.5q53 0 103.5 -6.5t108 -27.5t96 -54t57 -91.5t2.5 -135.5zM819 391l29 139q-52 -36 -207 -59q-38 -6 -64.5 -12.5t-56 -19
t-49.5 -29t-36 -42.5t-23 -61q-11 -47 5 -78t42 -42t57 -11q101 0 191.5 60t111.5 155zM1024 1536l170 -299h-231l-95 168l-166 -168h-231l297 299h256z" />
    <glyph glyph-name="atilde" unicode="&#xe3;" horiz-adv-x="1138" 
d="M1186 803l-125 -590q-15 -62 -12 -98.5t11.5 -50.5t26.5 -21l-8 -43h-309q-7 59 0 129q-31 -27 -52.5 -43.5t-61 -41t-75.5 -38.5t-88 -24.5t-108 -10.5q-64 0 -117 18t-94 56.5t-54.5 99t1.5 144.5q32 153 137 240t254 108l266 39q105 13 119 86q7 20 4 36t-5 28.5
t-12.5 22t-18.5 16t-23 11t-26 7.5t-27.5 4t-27.5 1.5t-26 0.5q-159 0 -207 -152h-276q25 81 61.5 144t82 103.5t94 68t107 41t109.5 19t113 5.5q53 0 103.5 -6.5t108 -27.5t96 -54t57 -91.5t2.5 -135.5zM819 391l29 139q-52 -36 -207 -59q-38 -6 -64.5 -12.5t-56 -19
t-49.5 -29t-36 -42.5t-23 -61q-11 -47 5 -78t42 -42t57 -11q101 0 191.5 60t111.5 155zM1135 1509h133q-11 -26 -22 -49.5t-37 -62t-54.5 -65.5t-72 -47.5t-91.5 -20.5q-59 0 -147 32q-19 6 -51.5 18.5t-51 17.5t-34.5 5q-47 0 -76 -29.5t-39 -58.5h-131q38 98 92 156
q89 96 209 96q33 0 59 -8t80 -31q82 -35 119 -35q78 0 115 82z" />
    <glyph glyph-name="adieresis" unicode="&#xe4;" horiz-adv-x="1138" 
d="M1186 803l-125 -590q-15 -62 -12 -98.5t11.5 -50.5t26.5 -21l-8 -43h-309q-7 59 0 129q-31 -27 -52.5 -43.5t-61 -41t-75.5 -38.5t-88 -24.5t-108 -10.5q-64 0 -117 18t-94 56.5t-54.5 99t1.5 144.5q32 153 137 240t254 108l266 39q105 13 119 86q7 20 4 36t-5 28.5
t-12.5 22t-18.5 16t-23 11t-26 7.5t-27.5 4t-27.5 1.5t-26 0.5q-159 0 -207 -152h-276q25 81 61.5 144t82 103.5t94 68t107 41t109.5 19t113 5.5q53 0 103.5 -6.5t108 -27.5t96 -54t57 -91.5t2.5 -135.5zM819 391l29 139q-52 -36 -207 -59q-38 -6 -64.5 -12.5t-56 -19
t-49.5 -29t-36 -42.5t-23 -61q-11 -47 5 -78t42 -42t57 -11q101 0 191.5 60t111.5 155zM817 1493l-49 -236h-258l49 236h258zM1217 1493l-50 -236h-258l49 236h259z" />
    <glyph glyph-name="aring" unicode="&#xe5;" horiz-adv-x="1138" 
d="M1186 803l-125 -590q-15 -62 -12 -98.5t11.5 -50.5t26.5 -21l-8 -43h-309q-7 59 0 129q-31 -27 -52.5 -43.5t-61 -41t-75.5 -38.5t-88 -24.5t-108 -10.5q-64 0 -117 18t-94 56.5t-54.5 99t1.5 144.5q32 153 137 240t254 108l266 39q105 13 119 86q7 20 4 36t-5 28.5
t-12.5 22t-18.5 16t-23 11t-26 7.5t-27.5 4t-27.5 1.5t-26 0.5q-159 0 -207 -152h-276q25 81 61.5 144t82 103.5t94 68t107 41t109.5 19t113 5.5q53 0 103.5 -6.5t108 -27.5t96 -54t57 -91.5t2.5 -135.5zM819 391l29 139q-52 -36 -207 -59q-38 -6 -64.5 -12.5t-56 -19
t-49.5 -29t-36 -42.5t-23 -61q-11 -47 5 -78t42 -42t57 -11q101 0 191.5 60t111.5 155zM1085 1376q-21 -92 -102.5 -152.5t-163.5 -60.5q-52 0 -97 25.5t-69 76t-10 111.5q19 92 101.5 152.5t164.5 60.5t138.5 -60.5t37.5 -152.5zM971 1376q9 44 -15.5 75.5t-68.5 31.5
t-82 -31.5t-47 -75.5t15.5 -75t68.5 -31t82 31t47 75z" />
    <glyph glyph-name="ae" unicode="&#xe6;" horiz-adv-x="1820" 
d="M1518 319h294q-47 -94 -114.5 -164t-142 -109t-148 -57t-147.5 -18h-15q-73 0 -131 12t-92 27t-63 43t-40.5 45.5t-29.5 48.5q-68 -82 -189.5 -129t-259.5 -47q-32 0 -61.5 2.5t-63 9t-60.5 18.5t-54.5 29.5t-44.5 42.5t-30 58.5t-11.5 76.5t10.5 97q23 112 106.5 198.5
t235.5 112.5l278 46q102 17 130 35t40 71q3 15 3.5 23.5t-1 25.5t-12.5 27.5t-29.5 22t-53.5 17t-83 5.5q-55 0 -95.5 -16.5t-62 -43t-31.5 -48.5t-15 -46h-281q112 383 573 383q196 0 312 -121q54 36 87 55t106 41.5t151 24.5q49 0 94.5 -7t93.5 -25t86.5 -47t70 -76
t47.5 -108t15.5 -147.5t-22.5 -189.5l-13 -51h-747q-2 -22 -3 -31.5t-1.5 -35t1.5 -39.5t7.5 -38t15 -38.5t25 -32.5t37 -27.5t52 -16.5t67.5 -7q64 0 122.5 31t86.5 87zM827 385l29 137q-26 -19 -69.5 -32t-155.5 -29q-50 -7 -81 -15t-62 -24.5t-49.5 -45.5t-28.5 -73
q-12 -62 24 -94.5t111 -32.5q87 0 175.5 62t106.5 147zM1157 653h445q7 63 -5 109.5t-39 72t-59 37t-69 11.5q-99 0 -168 -60t-105 -170z" />
    <glyph glyph-name="ccedilla" unicode="&#xe7;" horiz-adv-x="1138" 
d="M242 -416l65 99q101 -33 152 -33q36 0 70.5 22t41.5 58q7 34 -11.5 53.5t-51.5 19.5q-28 0 -86 -16l-35 41l127 145q-86 7 -152 34t-104.5 70t-62.5 94t-30 111.5t-2.5 116.5t15.5 115q29 135 82.5 243.5t132.5 190t190 126t246 44.5q57 0 112 -10.5t113.5 -39.5
t99.5 -73.5t61.5 -121t7.5 -173.5h-291q1 31 -4 58t-18.5 56t-43 46t-73.5 17h-15q-64 0 -117 -29.5t-87.5 -78.5t-56.5 -100.5t-34 -107.5q-7 -34 -11.5 -57.5t-8.5 -64t-1.5 -68.5t11.5 -61.5t27.5 -54t51 -34.5t77.5 -14q51 0 96 22t73 54t45 62t21 52h291
q-12 -39 -32.5 -82t-64 -102t-98 -106t-140.5 -85t-185 -47l-80 -88q41 9 63 9q25 0 51 -7.5t53 -24t39 -50t3 -78.5q-20 -90 -102.5 -146.5t-194.5 -56.5q-58 0 -102.5 10t-122.5 41z" />
    <glyph glyph-name="egrave" unicode="&#xe8;" horiz-adv-x="1138" 
d="M842 319h295q-47 -94 -114.5 -164t-142.5 -109t-148.5 -57t-147.5 -18q-95 0 -170 19t-136.5 61.5t-93 111.5t-39.5 169.5t23 234.5q7 34 18.5 72t36.5 94t57.5 106.5t83.5 102.5t112 90t147 62t184 24q49 0 94.5 -7t93.5 -25t86.5 -47t70 -76t47.5 -108t15.5 -147.5
t-22.5 -189.5l-12 -51h-748q-2 -22 -3 -31.5t-1.5 -35t1.5 -39.5t7.5 -38t15 -38.5t25 -32.5t37 -27.5t52 -16.5t67.5 -7q64 0 122.5 31t86.5 87zM481 653h445q7 63 -5 109.5t-39 72t-59 37t-69 11.5q-99 0 -168 -60t-105 -170zM745 1237l-237 299h315l129 -299h-207z" />
    <glyph glyph-name="eacute" unicode="&#xe9;" horiz-adv-x="1138" 
d="M842 319h295q-47 -94 -114.5 -164t-142.5 -109t-148.5 -57t-147.5 -18q-95 0 -170 19t-136.5 61.5t-93 111.5t-39.5 169.5t23 234.5q7 34 18.5 72t36.5 94t57.5 106.5t83.5 102.5t112 90t147 62t184 24q49 0 94.5 -7t93.5 -25t86.5 -47t70 -76t47.5 -108t15.5 -147.5
t-22.5 -189.5l-12 -51h-748q-2 -22 -3 -31.5t-1.5 -35t1.5 -39.5t7.5 -38t15 -38.5t25 -32.5t37 -27.5t52 -16.5t67.5 -7q64 0 122.5 31t86.5 87zM481 653h445q7 63 -5 109.5t-39 72t-59 37t-69 11.5q-99 0 -168 -60t-105 -170zM1284 1536l-364 -299h-207l256 299h315z" />
    <glyph glyph-name="ecircumflex" unicode="&#xea;" horiz-adv-x="1138" 
d="M842 319h295q-47 -94 -114.5 -164t-142.5 -109t-148.5 -57t-147.5 -18q-95 0 -170 19t-136.5 61.5t-93 111.5t-39.5 169.5t23 234.5q7 34 18.5 72t36.5 94t57.5 106.5t83.5 102.5t112 90t147 62t184 24q49 0 94.5 -7t93.5 -25t86.5 -47t70 -76t47.5 -108t15.5 -147.5
t-22.5 -189.5l-12 -51h-748q-2 -22 -3 -31.5t-1.5 -35t1.5 -39.5t7.5 -38t15 -38.5t25 -32.5t37 -27.5t52 -16.5t67.5 -7q64 0 122.5 31t86.5 87zM481 653h445q7 63 -5 109.5t-39 72t-59 37t-69 11.5q-99 0 -168 -60t-105 -170zM1024 1536l170 -299h-231l-95 168l-166 -168
h-231l297 299h256z" />
    <glyph glyph-name="edieresis" unicode="&#xeb;" horiz-adv-x="1138" 
d="M842 319h295q-47 -94 -114.5 -164t-142.5 -109t-148.5 -57t-147.5 -18q-95 0 -170 19t-136.5 61.5t-93 111.5t-39.5 169.5t23 234.5q7 34 18.5 72t36.5 94t57.5 106.5t83.5 102.5t112 90t147 62t184 24q49 0 94.5 -7t93.5 -25t86.5 -47t70 -76t47.5 -108t15.5 -147.5
t-22.5 -189.5l-12 -51h-748q-2 -22 -3 -31.5t-1.5 -35t1.5 -39.5t7.5 -38t15 -38.5t25 -32.5t37 -27.5t52 -16.5t67.5 -7q64 0 122.5 31t86.5 87zM481 653h445q7 63 -5 109.5t-39 72t-59 37t-69 11.5q-99 0 -168 -60t-105 -170zM817 1493l-49 -236h-258l49 236h258z
M1217 1493l-50 -236h-258l49 236h259z" />
    <glyph glyph-name="igrave" unicode="&#xec;" horiz-adv-x="569" 
d="M373 1090h286l-231 -1090h-287zM461 1237l-238 299h316l129 -299h-207z" />
    <glyph glyph-name="iacute" unicode="&#xed;" horiz-adv-x="569" 
d="M373 1090h286l-231 -1090h-287zM999 1536l-364 -299h-207l256 299h315z" />
    <glyph glyph-name="icircumflex" unicode="&#xee;" horiz-adv-x="569" 
d="M373 1090h286l-231 -1090h-287zM739 1536l170 -299h-231l-94 168l-166 -168h-232l297 299h256z" />
    <glyph glyph-name="idieresis" unicode="&#xef;" horiz-adv-x="569" 
d="M373 1090h286l-231 -1090h-287zM532 1493l-49 -236h-258l49 236h258zM932 1493l-49 -236h-258l49 236h258z" />
    <glyph glyph-name="eth" unicode="&#xf0;" 
d="M803 829q-62 0 -116 -23.5t-88.5 -57t-61.5 -76.5t-40.5 -76t-19.5 -61q-33 -156 20.5 -239t176.5 -83q69 0 126 28t91 65.5t60 88.5t36 83.5t17 64.5q6 28 7 60t-7.5 74t-28.5 74.5t-64.5 55t-107.5 22.5zM1372 1403l-227 -90q111 -130 161.5 -313t6.5 -396
q-29 -135 -85 -244t-125 -180t-152 -119.5t-163 -69t-161 -20.5q-84 0 -158 19t-140 61t-105 108.5t-53.5 162t13.5 221.5q50 229 222.5 378.5t396.5 149.5q23 0 48.5 -4t60 -14.5t66.5 -35t52 -59.5l6 5q-32 124 -145 247l-242 -96l-106 107l241 96q-79 67 -131 92l244 100
q77 -34 141 -90l230 90z" />
    <glyph glyph-name="ntilde" unicode="&#xf1;" 
d="M1278 754l-160 -754h-287l142 662q5 27 7.5 44.5t3.5 46t-7.5 47.5t-24 38.5t-46.5 29t-75 9.5q-99 0 -176 -66t-102 -186l-133 -625h-287l232 1090h274l-35 -160h4q27 33 53 58.5t72 59t108.5 52t135.5 18.5q167 0 252.5 -95t48.5 -269zM1190 1509h133q-11 -27 -22 -50
t-37 -62t-54 -65.5t-71.5 -47t-91.5 -20.5q-60 0 -148 32q-19 6 -51.5 18.5t-51 17.5t-34.5 5q-47 0 -76 -29.5t-39 -58.5h-131q38 98 92 156q89 96 209 96q33 0 59 -8t80 -31q82 -35 119 -35q78 0 115 82z" />
    <glyph glyph-name="ograve" unicode="&#xf2;" 
d="M1300 545q-25 -115 -75 -210.5t-116 -162t-146.5 -112.5t-166.5 -67.5t-175 -21.5q-112 0 -203 34.5t-155.5 105t-85 179t8.5 255.5q30 143 99 254.5t161.5 180t199 103.5t218.5 35t203 -34.5t155.5 -105t85 -178.5t-7.5 -255zM1006 545q10 46 13 88t-5 88.5t-29 79.5
t-65 54.5t-107 21.5t-116 -21.5t-88 -54.5t-62 -79.5t-41.5 -88.5t-24.5 -88t-13.5 -88t4 -88t28.5 -79.5t65 -55t107 -21.5t116 21.5t88 54.5t62.5 79.5t42.5 88t25 88.5zM801 1237l-238 299h316l129 -299h-207z" />
    <glyph glyph-name="oacute" unicode="&#xf3;" 
d="M1300 545q-25 -115 -75 -210.5t-116 -162t-146.5 -112.5t-166.5 -67.5t-175 -21.5q-112 0 -203 34.5t-155.5 105t-85 179t8.5 255.5q30 143 99 254.5t161.5 180t199 103.5t218.5 35t203 -34.5t155.5 -105t85 -178.5t-7.5 -255zM1006 545q10 46 13 88t-5 88.5t-29 79.5
t-65 54.5t-107 21.5t-116 -21.5t-88 -54.5t-62 -79.5t-41.5 -88.5t-24.5 -88t-13.5 -88t4 -88t28.5 -79.5t65 -55t107 -21.5t116 21.5t88 54.5t62.5 79.5t42.5 88t25 88.5zM1339 1536l-364 -299h-207l256 299h315z" />
    <glyph glyph-name="ocircumflex" unicode="&#xf4;" 
d="M1300 545q-25 -115 -75 -210.5t-116 -162t-146.5 -112.5t-166.5 -67.5t-175 -21.5q-112 0 -203 34.5t-155.5 105t-85 179t8.5 255.5q30 143 99 254.5t161.5 180t199 103.5t218.5 35t203 -34.5t155.5 -105t85 -178.5t-7.5 -255zM1006 545q10 46 13 88t-5 88.5t-29 79.5
t-65 54.5t-107 21.5t-116 -21.5t-88 -54.5t-62 -79.5t-41.5 -88.5t-24.5 -88t-13.5 -88t4 -88t28.5 -79.5t65 -55t107 -21.5t116 21.5t88 54.5t62.5 79.5t42.5 88t25 88.5zM1079 1536l170 -299h-231l-94 168l-166 -168h-232l297 299h256z" />
    <glyph glyph-name="otilde" unicode="&#xf5;" 
d="M1300 545q-25 -115 -75 -210.5t-116 -162t-146.5 -112.5t-166.5 -67.5t-175 -21.5q-112 0 -203 34.5t-155.5 105t-85 179t8.5 255.5q30 143 99 254.5t161.5 180t199 103.5t218.5 35t203 -34.5t155.5 -105t85 -178.5t-7.5 -255zM1006 545q10 46 13 88t-5 88.5t-29 79.5
t-65 54.5t-107 21.5t-116 -21.5t-88 -54.5t-62 -79.5t-41.5 -88.5t-24.5 -88t-13.5 -88t4 -88t28.5 -79.5t65 -55t107 -21.5t116 21.5t88 54.5t62.5 79.5t42.5 88t25 88.5zM1190 1509h133q-11 -27 -22 -50t-37 -62t-54 -65.5t-71.5 -47t-91.5 -20.5q-60 0 -148 32
q-19 6 -51.5 18.5t-51 17.5t-34.5 5q-47 0 -76 -29.5t-39 -58.5h-131q38 98 92 156q89 96 209 96q33 0 59 -8t80 -31q82 -35 119 -35q78 0 115 82z" />
    <glyph glyph-name="odieresis" unicode="&#xf6;" 
d="M1300 545q-25 -115 -75 -210.5t-116 -162t-146.5 -112.5t-166.5 -67.5t-175 -21.5q-112 0 -203 34.5t-155.5 105t-85 179t8.5 255.5q30 143 99 254.5t161.5 180t199 103.5t218.5 35t203 -34.5t155.5 -105t85 -178.5t-7.5 -255zM1006 545q10 46 13 88t-5 88.5t-29 79.5
t-65 54.5t-107 21.5t-116 -21.5t-88 -54.5t-62 -79.5t-41.5 -88.5t-24.5 -88t-13.5 -88t4 -88t28.5 -79.5t65 -55t107 -21.5t116 21.5t88 54.5t62.5 79.5t42.5 88t25 88.5zM872 1493l-49 -236h-258l49 236h258zM1272 1493l-49 -236h-258l49 236h258z" />
    <glyph glyph-name="divide" unicode="&#xf7;" horiz-adv-x="1228" 
d="M1133 403h-1037v230h1037v-230zM461 0v307h307v-307h-307zM461 729v307h307v-307h-307z" />
    <glyph glyph-name="oslash" unicode="&#xf8;" 
d="M1014 719l-508 -436q50 -70 166 -70q63 0 116 21.5t88 54.5t62.5 79.5t42.5 88t25 88.5q20 112 8 174zM473 367l510 438q-56 72 -170 72q-63 0 -116 -21.5t-88 -54.5t-62 -79.5t-41.5 -88.5t-24.5 -88q-23 -105 -8 -178zM1436 1081l-179 -151q93 -150 43 -385
q-25 -115 -75 -210.5t-116 -162t-146.5 -112.5t-166.5 -67.5t-175 -21.5q-216 0 -338 119l-172 -149l-66 59l182 158q-93 153 -41 387q30 143 99 254.5t161.5 180t199 103.5t218.5 35q215 0 342 -121l172 150z" />
    <glyph glyph-name="ugrave" unicode="&#xf9;" 
d="M1348 1090l-232 -1090h-274l32 154h-4q-141 -183 -370 -183q-169 0 -248.5 100.5t-36.5 301.5l152 717h286l-143 -676q-42 -201 143 -201q39 0 77.5 12t79 38.5t72 77.5t46.5 120l133 629h287zM801 1237l-238 299h316l129 -299h-207z" />
    <glyph glyph-name="uacute" unicode="&#xfa;" 
d="M1348 1090l-232 -1090h-274l32 154h-4q-141 -183 -370 -183q-169 0 -248.5 100.5t-36.5 301.5l152 717h286l-143 -676q-42 -201 143 -201q39 0 77.5 12t79 38.5t72 77.5t46.5 120l133 629h287zM1339 1536l-364 -299h-207l256 299h315z" />
    <glyph glyph-name="ucircumflex" unicode="&#xfb;" 
d="M1348 1090l-232 -1090h-274l32 154h-4q-141 -183 -370 -183q-169 0 -248.5 100.5t-36.5 301.5l152 717h286l-143 -676q-42 -201 143 -201q39 0 77.5 12t79 38.5t72 77.5t46.5 120l133 629h287zM1079 1536l170 -299h-231l-94 168l-166 -168h-232l297 299h256z" />
    <glyph glyph-name="udieresis" unicode="&#xfc;" 
d="M1348 1090l-232 -1090h-274l32 154h-4q-141 -183 -370 -183q-169 0 -248.5 100.5t-36.5 301.5l152 717h286l-143 -676q-42 -201 143 -201q39 0 77.5 12t79 38.5t72 77.5t46.5 120l133 629h287zM872 1493l-49 -236h-258l49 236h258zM1272 1493l-49 -236h-258l49 236h258z
" />
    <glyph glyph-name="yacute" unicode="&#xfd;" horiz-adv-x="1138" 
d="M1335 1090l-602 -1072q-46 -84 -75.5 -136t-63.5 -104.5t-56.5 -81.5t-52.5 -57t-54.5 -40t-60 -22t-70.5 -12.5t-85 -2.5q-47 0 -129 4l49 229q24 -4 53 -4q44 0 71.5 4.5t57 21t52 50t43.5 88.5l-160 1135h319l64 -803h4l393 803h303zM1284 1536l-364 -299h-207
l256 299h315z" />
    <glyph glyph-name="thorn" unicode="&#xfe;" 
d="M512 520q-16 -61 -12 -117.5t22.5 -100t63 -69.5t110.5 -26q65 0 120.5 32.5t92 85t60 105.5t35.5 107q16 65 13.5 125t-19 106t-60 74t-109.5 28q-243 0 -317 -350zM442 139l-118 -565h-287l403 1896h287l-111 -520h5q141 168 348 168q124 0 211 -61.5t125 -186.5
t-2 -313q-24 -116 -73 -218.5t-120.5 -186t-172.5 -132.5t-218 -49q-57 0 -103 12.5t-73 29t-48.5 42.5t-30.5 43t-18 41h-4z" />
    <glyph glyph-name="ydieresis" unicode="&#xff;" horiz-adv-x="1138" 
d="M1335 1090l-602 -1072q-46 -84 -75.5 -136t-63.5 -104.5t-56.5 -81.5t-52.5 -57t-54.5 -40t-60 -22t-70.5 -12.5t-85 -2.5q-47 0 -129 4l49 229q24 -4 53 -4q44 0 71.5 4.5t57 21t52 50t43.5 88.5l-160 1135h319l64 -803h4l393 803h303zM817 1493l-49 -236h-258l49 236
h258zM1217 1493l-50 -236h-258l49 236h259z" />
    <glyph glyph-name="dotlessi" unicode="&#x131;" horiz-adv-x="569" 
d="M29 0l196 1090h287l-197 -1090h-286z" />
    <glyph glyph-name="Lslash" unicode="&#x141;" 
d="M926 940l-295 -149l-111 -525h731l-57 -266h-1038l135 637l-221 -113l34 160l222 113l143 673h307l-110 -520l292 150z" />
    <glyph glyph-name="lslash" unicode="&#x142;" horiz-adv-x="569" 
d="M834 1071l-33 -160l-201 -102l-172 -809h-287l142 664l-201 -103l35 160l198 102l140 647h286l-106 -501z" />
    <glyph glyph-name="OE" unicode="&#x152;" horiz-adv-x="2048" 
d="M1544 1210l-65 -309h635l-56 -260h-635l-82 -381h682l-55 -260h-962l22 102q-57 -51 -101.5 -79.5t-107.5 -45t-147 -16.5q-55 0 -108 10.5t-108.5 36t-100.5 64.5t-81 101t-55 140t-17 186.5t29 235.5q25 114 66.5 220t109.5 208.5t152.5 178t201 121.5t249.5 46
q54 0 99 -9t73 -20.5t53.5 -31t37 -32t27.5 -32.5l19 86h962l-55 -260h-682zM1071 401l141 666q9 42 -1.5 75.5t-33.5 54t-55 34.5t-63 19t-62 5q-93 0 -171 -41.5t-135 -115.5t-97 -169t-64 -210q-15 -69 -18 -137t8.5 -135t39 -118t80 -82.5t124.5 -31.5q121 0 206.5 58
t100.5 128z" />
    <glyph glyph-name="oe" unicode="&#x153;" horiz-adv-x="1933" 
d="M1628 319h295q-47 -94 -114.5 -164t-142.5 -109t-148.5 -57t-147.5 -18q-70 0 -127 10.5t-91.5 24t-65 37.5t-44 39t-32.5 41q-159 -152 -389 -152q-112 0 -203 34.5t-155.5 105t-85 179t8.5 255.5q30 143 99 254.5t161.5 180t199 103.5t218.5 35q110 0 203 -46t137 -118
q44 37 75.5 60t81 50t107.5 40.5t125 13.5q49 0 94.5 -7t93.5 -25t86.5 -47t70 -76t47.5 -108t15.5 -147.5t-22.5 -189.5l-12 -51h-747q-2 -23 -3 -31.5t-1.5 -34.5t1.5 -39.5t7 -38.5t14.5 -39t25 -32t37 -27.5t52 -16.5t67.5 -7q64 0 122.5 31t86.5 87zM1006 545
q10 46 13 88t-5 88.5t-29 79.5t-65 54.5t-107 21.5t-116 -21.5t-88 -54.5t-62 -79.5t-41.5 -88.5t-24.5 -88t-13.5 -88t4 -88t28.5 -79.5t65 -55t107 -21.5t116 21.5t88 54.5t62.5 79.5t42.5 88t25 88.5zM1268 653h444q7 63 -5 109.5t-39 72t-59 37t-69 11.5
q-196 0 -272 -230z" />
    <glyph glyph-name="Scaron" unicode="&#x160;" horiz-adv-x="1366" 
d="M176 453h295q-5 -23 -5 -46t5.5 -51.5t23.5 -52.5t46 -44.5t77 -32t113 -11.5q60 0 112 8.5t103 28t86 59t47 95.5q9 42 -2 71t-49 50t-73 32.5t-103 28.5l-150 37q-167 41 -234 75q-140 70 -152 214q-5 63 12 143q8 38 22.5 76.5t41 84.5t61 86t87 78.5t115.5 66t149 44
t185 16.5q93 0 169.5 -17t128 -45.5t89 -68t57 -82t29 -90t8 -89.5t-9.5 -83h-295q2 19 2 33.5t-3 39t-11.5 42.5t-27 39.5t-45.5 35t-70.5 22.5t-98.5 9q-47 0 -91.5 -9t-87 -28.5t-73.5 -55t-41 -83.5q-4 -19 -4 -35.5t2.5 -29t9.5 -23.5t14 -18.5t18 -14.5t20 -11.5
t22 -9t21 -6.5l20 -5l340 -88q38 -10 69.5 -20.5t65 -25t59 -32t49 -40t38 -50.5t23.5 -61.5t8 -75.5t-11 -91q-19 -91 -61 -165.5t-92.5 -123.5t-114.5 -86t-121 -56.5t-118.5 -31.5t-100.5 -15t-74 -3q-111 0 -199.5 18t-146 47.5t-98 71t-60 85t-27 93.5t-5 92t11.5 85z
M1452 1917l-297 -299h-256l-170 299h232l94 -168l166 168h231z" />
    <glyph glyph-name="scaron" unicode="&#x161;" horiz-adv-x="1138" 
d="M1192 758h-281q1 25 -0.5 42t-10.5 38t-25.5 33.5t-48 21t-76.5 8.5q-178 0 -201 -106q-6 -27 13.5 -47.5t56.5 -32.5t86 -24t103 -22t107.5 -27t99.5 -39.5t78.5 -58t45 -83t-1.5 -115.5q-19 -91 -68 -160.5t-108 -109t-132 -64.5t-132 -33t-117 -8q-78 0 -147 11
t-132 38.5t-104.5 69t-59 108t-2.5 150.5h295q-15 -75 31.5 -117.5t173.5 -42.5q98 0 147.5 36t57.5 77q7 32 -17 55t-69 35t-103 25.5t-118.5 26t-116.5 37t-96.5 57t-57.5 88.5t-2 129q11 51 34 99.5t65.5 97.5t99 85t139 59t180.5 23q71 0 130 -7.5t119.5 -31t99.5 -62
t58 -104.5t7 -155zM1257 1536l-296 -299h-256l-170 299h231l94 -168l166 168h231z" />
    <glyph glyph-name="Ydieresis" unicode="&#x178;" horiz-adv-x="1366" 
d="M963 551l-117 -551h-307l118 555l-313 915h363l167 -639l429 639h348zM1010 1874l-49 -236h-259l50 236h258zM1409 1874l-49 -236h-258l49 236h258z" />
    <glyph glyph-name="Zcaron" unicode="&#x17d;" 
d="M1255 260l-55 -260h-1149l55 260l963 950h-739l55 260h1124l-51 -241l-977 -969h774zM1395 1917l-297 -299h-256l-170 299h231l94 -168l166 168h232z" />
    <glyph glyph-name="zcaron" unicode="&#x17e;" horiz-adv-x="1024" 
d="M1145 854l-684 -618h571l-49 -236h-942l47 223l694 637h-520l49 230h883zM1200 1536l-297 -299h-256l-170 299h232l94 -168l166 168h231z" />
    <glyph glyph-name="florin" unicode="&#x192;" horiz-adv-x="1138" 
d="M1108 1425l-51 -223q-54 37 -109 37q-67 0 -100 -46t-49 -140l-21 -109h246v-194h-270l-125 -717q-13 -77 -30 -138t-47.5 -124t-71.5 -105t-103.5 -69t-140.5 -27q-93 0 -205 43l49 221q45 -37 106 -37q47 0 72 19.5t45.5 79t42.5 186.5l117 668h-250v194h281l18 96
q12 62 24 107.5t32 97.5t48.5 88t68 67t96 46.5t126.5 15.5q41 0 100 -10t101 -27z" />
    <glyph glyph-name="circumflex" unicode="&#x2c6;" horiz-adv-x="681" 
d="M795 1536l170 -299h-232l-94 168l-166 -168h-231l297 299h256z" />
    <glyph glyph-name="caron" unicode="&#x2c7;" horiz-adv-x="569" 
d="M244 1251l-170 295h200l107 -172l186 172h219l-286 -295h-256z" />
    <glyph glyph-name="uni02C9" unicode="&#x2c9;" horiz-adv-x="569" 
d="M27 1296l22 152h694l-22 -152h-694z" />
    <glyph glyph-name="breve" unicode="&#x2d8;" horiz-adv-x="681" 
d="M879 1536h133q-10 -34 -25.5 -67t-49.5 -77.5t-78 -76.5t-116 -55t-159 -23q-56 0 -101 12.5t-73 32t-47.5 47.5t-28.5 54.5t-12.5 57.5t-3 52.5t3.5 42.5h135q0 -22 1.5 -36t10.5 -36.5t26 -36t52 -24t84 -10.5q34 0 58 2t55.5 10t54 23t44.5 42.5t36 65.5z" />
    <glyph glyph-name="dotaccent" unicode="&#x2d9;" horiz-adv-x="681" 
d="M788 1493l-49 -236h-258l49 236h258z" />
    <glyph glyph-name="ring" unicode="&#x2da;" horiz-adv-x="681" 
d="M856 1376q-21 -92 -102.5 -152.5t-163.5 -60.5q-52 0 -97 25.5t-69 76t-10 111.5q19 92 101.5 152.5t164.5 60.5t138.5 -60.5t37.5 -152.5zM741 1376q9 44 -15.5 75.5t-68.5 31.5t-82 -31.5t-47 -75.5t15.5 -75t68.5 -31t82 31t47 75z" />
    <glyph glyph-name="ogonek" unicode="&#x2db;" horiz-adv-x="681" 
d="M518 -317l17 -101q-137 -49 -234 -49q-111 0 -171.5 55t-43.5 136q21 94 97 166t186 110h172l-2 -8q-105 -50 -174.5 -122.5t-79.5 -123.5q-10 -47 12.5 -72.5t58.5 -25.5q59 0 162 35z" />
    <glyph glyph-name="tilde" unicode="&#x2dc;" horiz-adv-x="681" 
d="M905 1509h133q-11 -27 -22 -50t-37 -62t-54 -65.5t-71.5 -47t-91.5 -20.5q-60 0 -148 32q-19 6 -51.5 18.5t-51 17.5t-34.5 5q-47 0 -76 -29.5t-39 -58.5h-131q37 96 93 156q89 96 208 96q33 0 60 -8t80 -31q82 -35 119 -35q77 0 114 82z" />
    <glyph glyph-name="hungarumlaut" unicode="&#x2dd;" horiz-adv-x="569" 
d="M74 1251l209 293h325l-329 -293h-205zM483 1251l209 295h326l-330 -295h-205z" />
    <glyph glyph-name="uni03A9" unicode="&#x3a9;" horiz-adv-x="1445" 
d="M264 199l2 6q-41 48 -71 106t-52 135t-22.5 162t18.5 187q29 138 101 260.5t171.5 212t227 142t262.5 52.5q82 0 152.5 -19.5t123 -55t93 -84t65.5 -106t37 -122t10.5 -132t-16.5 -134.5q-40 -190 -147 -348t-236 -256l-2 -6h285l-43 -199h-531l31 145q126 74 231 228
t154 383q17 78 18 151.5t-15 137.5t-48 112t-85 75.5t-122 27.5q-167 0 -300 -145.5t-181 -369.5q-32 -149 -20 -270t50.5 -203.5t98.5 -126.5l-31 -145h-530l43 199h278z" />
    <glyph glyph-name="uni03BC" unicode="&#x3bc;" horiz-adv-x="1228" 
d="M-72 -432l303 1425h232l-94 -438q-31 -159 -31 -215q0 -166 166 -166q45 0 83.5 14t66 35t51 55.5t38.5 63.5t28.5 72.5t20 70t15.5 66.5l94 444h232l-213 -995h-201l29 129q-58 -72 -117 -109.5t-156 -37.5q-47 0 -83 9t-61 27.5t-37 32t-28 35.5l-108 -518h-230z" />
    <glyph glyph-name="pi" unicode="&#x3c0;" horiz-adv-x="1218" 
d="M1217 872h-148l-121 -567q-41 -190 -37 -305h-235q-23 70 26 293l123 579h-295q-48 -194 -142 -459t-177 -413h-234q87 175 179.5 433.5t134.5 438.5q-131 0 -209 -20l6 162q101 67 342 67h850z" />
    <glyph glyph-name="afii10023" unicode="&#x401;" 
d="M31 0l266 1470h977l-45 -253h-676l-57 -326h620l-45 -254h-618l-68 -383h709l-45 -254h-1018zM877 1597l43 242h268l-43 -242h-268zM475 1597l43 242h268l-43 -242h-268z" />
    <glyph glyph-name="afii10051" unicode="&#x402;" horiz-adv-x="1593" 
d="M1323 1470l-49 -256h-426l-66 -364q2 1 26.5 8t34.5 9.5t36.5 9t46.5 9t49 5t57 2.5q96 0 171 -27t122.5 -71t78.5 -105.5t43.5 -124.5t12.5 -133q0 -72 -11 -151t-36 -164t-61.5 -164.5t-91 -151t-120.5 -124.5t-154.5 -84t-188.5 -31q-59 0 -140 12l50 264q46 -8 88 -8
q67 0 123 28.5t92.5 72.5t65 103t44 115.5t25.5 114t13 94t3 60.5q0 105 -52 162t-153 57q-82 0 -219 -35l-104 -602h-307l219 1214h-383l47 256h1114z" />
    <glyph glyph-name="afii10052" unicode="&#x403;" horiz-adv-x="1093" 
d="M31 0l270 1470h924l-47 -253h-617l-223 -1217h-307zM584 1597l209 295h325l-330 -295h-204z" />
    <glyph glyph-name="afii10053" unicode="&#x404;" horiz-adv-x="1478" 
d="M895 856l-43 -242h-457q3 -190 87.5 -293.5t250.5 -103.5q253 0 340 248h309q-39 -121 -94.5 -211t-136 -156.5t-192 -100.5t-254.5 -34q-152 0 -270.5 47.5t-194 135t-114 207t-38.5 265.5q0 107 21.5 212t63 205t108 185t151 149.5t198 101t242.5 36.5
q87 0 165.5 -17.5t150 -57t124.5 -98t87 -145t41 -192.5h-307q-2 37 -11 71t-29.5 68.5t-50.5 59.5t-76.5 41t-103.5 16q-314 0 -432 -397h465z" />
    <glyph glyph-name="afii10054" unicode="&#x405;" 
d="M1217 1044h-295q0 42 -11 76.5t-37 65.5t-75.5 49t-118.5 18q-94 0 -154.5 -42.5t-60.5 -123.5q0 -43 17.5 -71t80 -64t189.5 -84q192 -73 286.5 -178t94.5 -264q0 -217 -143.5 -340t-409.5 -123q-252 0 -398.5 124.5t-146.5 371.5h295q5 -242 262 -242q105 0 175.5 47
t70.5 133q0 82 -56.5 129.5t-240.5 120.5q-71 28 -124 55.5t-101.5 64.5t-79 78.5t-48.5 97t-18 120.5q0 111 42 198t114.5 139.5t164.5 79.5t197 27q83 0 153 -13t120 -32.5t90.5 -50.5t66.5 -60t45.5 -69t28.5 -68t15.5 -67t7.5 -57t2 -46z" />
    <glyph glyph-name="afii10055" unicode="&#x406;" horiz-adv-x="569" 
d="M18 0l267 1470h307l-266 -1470h-308z" />
    <glyph glyph-name="afii10056" unicode="&#x407;" horiz-adv-x="569" 
d="M18 0l267 1470h307l-266 -1470h-308zM514 1597l43 242h268l-43 -242h-268zM113 1597l43 242h268l-43 -242h-268z" />
    <glyph glyph-name="afii10057" unicode="&#x408;" horiz-adv-x="1024" 
d="M545 446l182 1024h307l-176 -993q-13 -72 -21.5 -112t-27 -103t-39 -98.5t-55.5 -79.5t-79 -66.5t-107.5 -38.5t-141.5 -16q-185 0 -291 90.5t-106 245.5q0 69 22 223h277q-29 -135 -29 -194t34.5 -91t84.5 -32q75 0 108.5 54.5t57.5 186.5z" />
    <glyph glyph-name="afii10058" unicode="&#x409;" horiz-adv-x="2009" 
d="M1241 649l-72 -395h156q145 0 221 54.5t76 176.5q0 89 -55 126.5t-156 37.5h-170zM-86 -2l49 266q41 -18 84 -18q25 0 45.5 8t46 31.5t48.5 76.5t40 132l219 976h947l-107 -579h148q252 0 373.5 -105.5t121.5 -293.5q0 -34 -4 -69t-17.5 -85.5t-36 -94.5t-64 -90
t-96 -78.5t-137 -53.5t-183.5 -21h-574l223 1217h-354l-184 -822q-27 -119 -75.5 -206t-109 -134.5t-123 -69.5t-128.5 -22q-73 0 -152 35z" />
    <glyph glyph-name="afii10059" unicode="&#x40a;" horiz-adv-x="1933" 
d="M1192 649l-70 -395h127q145 0 221 54.5t76 176.5q0 89 -55 126.5t-156 37.5h-143zM18 0l267 1470h307l-105 -579h441l104 579h307l-104 -579h123q252 0 373.5 -105.5t121.5 -293.5q0 -34 -4 -69t-17.5 -85.5t-36 -94.5t-64 -90t-96 -78.5t-137 -53.5t-183.5 -21h-547
l117 649h-443l-116 -649h-308z" />
    <glyph glyph-name="afii10060" unicode="&#x40b;" horiz-adv-x="1654" 
d="M326 0l219 1214h-383l47 256h1114l-49 -256h-426l-60 -329q132 6 242 6q50 0 79.5 -1t85.5 -7t92 -17.5t81 -35t71.5 -56.5t45 -85t18.5 -118q0 -111 -18 -206l-68 -365h-307l68 365q18 99 18 143q0 75 -53 102t-205 27q-43 0 -190 -6l-115 -631h-307z" />
    <glyph glyph-name="afii10061" unicode="&#x40c;" horiz-adv-x="1366" 
d="M719 1597l209 295h325l-329 -295h-205zM51 0l266 1470h301l-112 -583l557 583h381l-613 -630l431 -840h-342l-302 618l-186 -186l-76 -432h-305z" />
    <glyph glyph-name="afii10062" unicode="&#x40e;" 
d="M39 0l41 258q101 -29 151 -29q112 0 152.5 43.5t40.5 122.5q0 74 -33 203l-213 872h316l161 -817h4l408 817h338l-703 -1228q-87 -150 -192 -214.5t-264 -64.5q-82 0 -207 37zM535 1878h96q8 -109 182 -109q198 0 248 109h96q-24 -133 -120 -207t-226 -74
q-74 0 -126 14.5t-81 37t-45 61.5t-20 75.5t-4 92.5z" />
    <glyph glyph-name="afii10145" unicode="&#x40f;" horiz-adv-x="1478" 
d="M31 0l268 1470h307l-221 -1216h576l221 1216h307l-268 -1470h-459l-55 -315h-273l55 315h-458z" />
    <glyph glyph-name="afii10017" unicode="&#x410;" horiz-adv-x="1366" 
d="M926 543l-60 620h-4l-305 -620h369zM-35 0l770 1470h359l186 -1470h-303l-27 289h-518l-141 -289h-326z" />
    <glyph glyph-name="afii10018" unicode="&#x411;" horiz-adv-x="1478" 
d="M31 0l266 1470h1014l-45 -253h-711l-59 -326h364q252 0 374 -105.5t122 -293.5q0 -34 -4 -69t-17.5 -85.5t-36 -94.5t-64 -90t-96.5 -78.5t-137.5 -53.5t-183.5 -21h-786zM451 649l-72 -395h373q145 0 221 54.5t76 176.5q0 89 -55 126.5t-156 37.5h-387z" />
    <glyph glyph-name="afii10019" unicode="&#x412;" horiz-adv-x="1478" 
d="M31 0l266 1470h575q270 0 390 -97.5t120 -285.5q0 -119 -60 -207t-181 -128q88 -47 133 -114t45 -171q0 -222 -142.5 -344.5t-406.5 -122.5h-739zM455 649l-72 -395h377q66 0 117 20.5t79 54t42 69.5t14 73q0 90 -58 134t-159 44h-340zM557 1217l-59 -326h354
q109 0 166 47.5t57 138.5q0 77 -50 108.5t-140 31.5h-328z" />
    <glyph glyph-name="afii10020" unicode="&#x413;" horiz-adv-x="1093" 
d="M31 0l270 1470h924l-47 -253h-617l-223 -1217h-307z" />
    <glyph glyph-name="afii10021" unicode="&#x414;" horiz-adv-x="1478" 
d="M-123 -315l100 569h103q75 86 145.5 238.5t125 333.5t92.5 335t69 309h958l-221 -1216h125l-100 -569h-275l54 315h-846l-53 -315h-277zM944 254l174 963h-379q-59 -296 -128.5 -513.5t-192.5 -449.5h526z" />
    <glyph glyph-name="afii10022" unicode="&#x415;" 
d="M31 0l266 1470h977l-45 -253h-676l-57 -326h620l-45 -254h-618l-68 -383h709l-45 -254h-1018z" />
    <glyph glyph-name="afii10024" unicode="&#x416;" horiz-adv-x="1970" 
d="M2085 1470l-645 -698l426 -772h-338l-338 639h-64l-116 -639h-279l117 639h-49l-490 -639h-366l647 780l-406 690h338l316 -600h53l108 600h281l-113 -600h47l515 600h356z" />
    <glyph glyph-name="afii10025" unicode="&#x417;" 
d="M461 1042h-277q15 95 55.5 175.5t108.5 147t174.5 104.5t239.5 38q120 0 212 -31t145.5 -84t80.5 -116.5t27 -134.5q0 -135 -74 -231.5t-217 -129.5v-4q101 -36 153 -105.5t52 -191.5q0 -70 -19.5 -139.5t-65 -138t-111.5 -121t-168 -85t-226 -32.5q-254 0 -390 124.5
t-136 330.5v28h282q12 -135 73 -188t189 -53q65 0 117.5 23.5t83.5 62t47.5 84t16.5 92.5q0 192 -213 192h-84l36 218q73 -5 91 -5q120 0 194 63t74 175q0 168 -193 168q-211 0 -278 -236z" />
    <glyph glyph-name="afii10026" unicode="&#x418;" horiz-adv-x="1478" 
d="M31 0l270 1470h307l-182 -981h4l731 981h328l-268 -1470h-308l224 1016h-4l-787 -1016h-315z" />
    <glyph glyph-name="afii10027" unicode="&#x419;" horiz-adv-x="1478" 
d="M627 1878h96q8 -109 182 -109q198 0 248 109h96q-24 -133 -120 -207t-226 -74q-74 0 -126 14.5t-81 37t-45 61.5t-20 75.5t-4 92.5zM31 0l270 1470h307l-182 -981h4l731 981h328l-268 -1470h-308l224 1016h-4l-787 -1016h-315z" />
    <glyph glyph-name="afii10028" unicode="&#x41a;" horiz-adv-x="1366" 
d="M51 0l266 1470h301l-112 -583l557 583h381l-613 -630l431 -840h-342l-302 618l-186 -186l-76 -432h-305z" />
    <glyph glyph-name="afii10029" unicode="&#x41b;" horiz-adv-x="1509" 
d="M946 0l221 1217h-424l-172 -762q-22 -97 -47 -169t-61.5 -135.5t-82.5 -103t-109.5 -62t-143.5 -22.5q-96 0 -186 37l43 264q59 -20 104 -20q27 0 41.5 2.5t34.5 14.5t34 36.5t32 69t36.5 112t40.5 164.5l191 827h1022l-267 -1470h-307z" />
    <glyph glyph-name="afii10030" unicode="&#x41c;" horiz-adv-x="1705" 
d="M31 0l258 1470h448l62 -1089h4l450 1089h463l-266 -1470h-287l244 1257h-4l-526 -1257h-273l-84 1257h-4l-199 -1257h-286z" />
    <glyph glyph-name="afii10031" unicode="&#x41d;" horiz-adv-x="1478" 
d="M31 0l268 1470h307l-102 -559h575l103 559h307l-268 -1470h-308l121 657h-575l-121 -657h-307z" />
    <glyph glyph-name="afii10032" unicode="&#x41e;" horiz-adv-x="1593" 
d="M109 618q0 107 21.5 212t63 205t108 185t151 149.5t198 101t242.5 36.5q141 0 254 -41.5t184 -107.5t118.5 -154t67 -175t19.5 -177q0 -107 -21.5 -212t-63 -205t-108 -185t-151 -149.5t-198 -101t-242.5 -36.5q-141 0 -254 41.5t-184 107.5t-118.5 154t-67 175
t-19.5 177zM416 604q0 -98 28 -174t76.5 -121.5t109.5 -68.5t132 -23q78 0 144 24t113 64t84 95t60.5 113.5t38.5 123t21 120.5t6 109q0 98 -28 174t-76.5 121.5t-109.5 68.5t-132 23q-78 0 -144 -24t-113 -64t-84 -95t-60.5 -113.5t-38.5 -123t-21 -120.5t-6 -109z" />
    <glyph glyph-name="afii10033" unicode="&#x41f;" horiz-adv-x="1478" 
d="M31 0l266 1470h1192l-266 -1470h-308l222 1217h-578l-221 -1217h-307z" />
    <glyph glyph-name="afii10034" unicode="&#x420;" horiz-adv-x="1366" 
d="M31 0l266 1470h506q111 0 200 -23t147.5 -61.5t97.5 -93t56 -115.5t17 -130q0 -253 -152 -394t-444 -141h-295l-92 -512h-307zM559 1217l-82 -451h273q139 0 207.5 70t68.5 180q0 201 -209 201h-258z" />
    <glyph glyph-name="afii10035" unicode="&#x421;" horiz-adv-x="1478" 
d="M1440 977h-307q0 127 -77 201.5t-194 74.5q-78 0 -144 -24t-113 -64t-84 -95t-60.5 -113.5t-38.5 -123t-21 -120.5t-6 -109q0 -80 19 -145.5t59 -118t109 -82t161 -29.5q123 0 214 66t126 207h312q-63 -257 -232 -398t-432 -141q-141 0 -254 41.5t-184 107.5t-118.5 154
t-67 175t-19.5 177q0 107 21.5 212t63 205t108 185t151 149.5t198 101t242.5 36.5q257 0 412.5 -138.5t155.5 -391.5z" />
    <glyph glyph-name="afii10036" unicode="&#x422;" horiz-adv-x="1138" 
d="M291 0l221 1217h-389l47 253h1042l-47 -253h-346l-221 -1217h-307z" />
    <glyph glyph-name="afii10037" unicode="&#x423;" 
d="M39 0l41 258q101 -29 151 -29q112 0 152.5 43.5t40.5 122.5q0 74 -33 203l-213 872h316l161 -817h4l408 817h338l-703 -1228q-87 -150 -192 -214.5t-264 -64.5q-82 0 -207 37z" />
    <glyph glyph-name="afii10038" unicode="&#x424;" horiz-adv-x="1705" 
d="M614 0l29 160q-103 0 -197.5 31t-170.5 88t-121 148t-45 202q0 142 57.5 268.5t156 217t237.5 143.5t296 53l29 159h307l-29 -159q103 0 198 -31t170.5 -88t121 -148t45.5 -202q0 -142 -57.5 -268.5t-156.5 -217t-238 -143.5t-296 -53l-28 -160h-308zM682 373l135 725
q-188 -17 -307 -151t-119 -304q0 -130 81.5 -195t209.5 -75zM1124 1098l-135 -725q89 0 169.5 40t136 104.5t88 146t32.5 163.5q0 130 -81.5 195.5t-209.5 75.5z" />
    <glyph glyph-name="afii10039" unicode="&#x425;" 
d="M-43 0l522 774l-319 696h325l189 -432l289 432h352l-494 -727l342 -743h-329l-220 477l-309 -477h-348z" />
    <glyph glyph-name="afii10040" unicode="&#x426;" horiz-adv-x="1478" 
d="M31 0l268 1470h307l-221 -1216h576l221 1216h307l-221 -1216h118l-100 -569h-270l53 315h-1038z" />
    <glyph glyph-name="afii10041" unicode="&#x427;" horiz-adv-x="1366" 
d="M801 0l106 582q-63 -12 -164 -22.5t-165 -10.5q-201 0 -300.5 77t-99.5 218q0 71 25 215l76 411h307l-84 -464q-13 -67 -13 -97q0 -66 49 -98.5t156 -32.5q62 0 144 10t110 19l121 663h307l-268 -1470h-307z" />
    <glyph glyph-name="afii10042" unicode="&#x428;" horiz-adv-x="1933" 
d="M31 0l268 1470h289l-221 -1216h389l221 1216h289l-222 -1216h390l221 1216h289l-269 -1470h-1644z" />
    <glyph glyph-name="afii10043" unicode="&#x429;" horiz-adv-x="1933" 
d="M31 0l268 1470h289l-221 -1216h389l221 1216h289l-222 -1216h390l221 1216h289l-222 -1216h119l-100 -569h-271l56 315h-1495z" />
    <glyph glyph-name="afii10044" unicode="&#x42a;" horiz-adv-x="1705" 
d="M803 649l-72 -395h264q145 0 221 54.5t76 176.5q0 89 -55 126.5t-156 37.5h-278zM375 0l223 1217h-430l45 253h741l-106 -579h256q252 0 373.5 -105.5t121.5 -293.5q0 -34 -4 -69t-17.5 -85.5t-36 -94.5t-64 -90t-96 -78.5t-137 -53.5t-183.5 -21h-686z" />
    <glyph glyph-name="afii10045" unicode="&#x42b;" horiz-adv-x="1933" 
d="M18 0l267 1470h307l-105 -579h273q252 0 373.5 -105.5t121.5 -293.5q0 -34 -4 -69t-17.5 -85.5t-36 -94.5t-64 -90t-96 -78.5t-137 -53.5t-183.5 -21h-699zM442 649l-71 -395h280q145 0 221 54.5t76 176.5q0 89 -55 126.5t-156 37.5h-295zM1358 0l266 1470h307
l-266 -1470h-307z" />
    <glyph glyph-name="afii10046" unicode="&#x42c;" horiz-adv-x="1366" 
d="M14 0l267 1470h307l-105 -579h277q252 0 373.5 -105.5t121.5 -293.5q0 -34 -4 -69t-17.5 -85.5t-36 -94.5t-64 -90t-96 -78.5t-137 -53.5t-183.5 -21h-703zM438 649l-71 -395h284q145 0 221 54.5t76 176.5q0 89 -55 126.5t-156 37.5h-299z" />
    <glyph glyph-name="afii10047" unicode="&#x42d;" horiz-adv-x="1478" 
d="M623 614l43 242h448q-3 184 -84.5 290.5t-214.5 106.5q-132 0 -210.5 -56t-135.5 -191h-317q75 236 247 368.5t406 132.5q152 0 270.5 -47.5t193.5 -135t113.5 -206.5t38.5 -266q0 -107 -21.5 -212t-63 -205t-108 -185t-151 -149.5t-198 -101t-242.5 -36.5
q-81 0 -158 17.5t-150.5 57t-131 97.5t-96.5 145t-50 193h303q7 -47 24.5 -89t50.5 -81.5t89 -62.5t129 -23q76 0 141 22.5t111 59.5t83 89.5t59.5 107.5t37.5 118h-456z" />
    <glyph glyph-name="afii10048" unicode="&#x42e;" horiz-adv-x="1933" 
d="M1581 881q0 190 -81.5 281t-209.5 91q-98 0 -179.5 -59t-133 -155.5t-79.5 -212.5t-28 -236q0 -98 23 -171.5t64 -116.5t92 -64t112 -21q97 0 179.5 66t133.5 167t79 214.5t28 216.5zM-10 0l266 1470h307l-110 -614h155q17 96 54 186.5t99 176t142 148.5t190.5 101.5
t237.5 38.5q74 0 144 -16.5t144.5 -61.5t130 -114.5t91 -185.5t35.5 -265q0 -80 -13 -165.5t-42 -173.5t-70 -169.5t-101 -153.5t-132 -125t-166 -83.5t-199 -30.5q-289 0 -433.5 173t-144.5 478h-167l-111 -614h-307z" />
    <glyph glyph-name="afii10049" unicode="&#x42f;" horiz-adv-x="1478" 
d="M1489 1470l-266 -1470h-308l105 584h-281q-60 0 -90.5 -4.5t-57.5 -24.5t-42.5 -52t-38.5 -97l-98 -275q-32 -85 -64 -131h-340l8 45q33 7 48 30.5t42 104.5l87 260q20 59 34 92.5t30 60.5t38 41.5t47.5 24.5t69.5 21q-51 16 -90.5 42t-61.5 57.5t-36.5 60.5t-20 61.5
t-7 48.5t-1.5 33q0 120 46.5 226t137.5 171q68 49 154.5 69.5t240.5 20.5h715zM1065 825l70 392h-328q-27 0 -43.5 -0.5t-47.5 -3t-52 -9t-49 -16.5t-46 -27t-35 -39.5t-25.5 -56t-8.5 -74.5q0 -34 9.5 -61t23 -44.5t36.5 -29.5t41.5 -18t46 -9t42 -3.5t38.5 -0.5h328z" />
    <glyph glyph-name="afii10065" unicode="&#x430;" horiz-adv-x="1138" 
d="M657 0v119h-4q-41 -69 -118.5 -110.5t-176.5 -41.5q-145 0 -237 87t-92 241q0 168 109 263.5t337 119.5l100 10q94 9 136.5 29.5t42.5 77.5q0 114 -170 114q-149 0 -168 -121h-281q20 144 133 232q134 102 342 102q200 0 313 -84.5t113 -228.5q0 -52 -14 -131l-86 -485
q-8 -41 -8 -87q0 -55 33 -88v-18h-304zM311 326q0 -64 37.5 -96.5t100.5 -32.5q105 0 178 79.5t80 231.5q-32 -8 -92.5 -15.5t-107.5 -15.5t-95 -24t-74.5 -47.5t-26.5 -79.5z" />
    <glyph glyph-name="afii10066" unicode="&#x431;" 
d="M981 1507h211q-21 -53 -47 -91t-52 -61t-65.5 -39t-73 -23.5t-88.5 -16.5q-80 -12 -120.5 -19.5t-88 -23.5t-70 -30.5t-58 -49.5t-62 -71.5t-72.5 -104.5l4 -4q123 117 320 117q88 0 168.5 -30t146.5 -87.5t105 -151t39 -209.5q0 -61 -14 -128t-42.5 -141t-79 -140
t-117.5 -119.5t-164.5 -85t-213.5 -31.5q-104 0 -194.5 33.5t-159.5 96t-108.5 160.5t-39.5 220q0 189 68 385t192.5 348.5t272.5 202.5q78 27 180 35.5t158 17.5t65 41zM565 197q134 0 226 117.5t92 275.5q0 36 -6.5 71.5t-23 72t-42 64t-67 45t-93.5 17.5
q-135 0 -223 -104.5t-88 -286.5q0 -130 64.5 -201t160.5 -71z" />
    <glyph glyph-name="afii10067" unicode="&#x432;" 
d="M45 0l197 1090h594q153 0 234 -69.5t81 -195.5q0 -40 -13 -79t-39.5 -75.5t-73 -61t-107.5 -29.5v-5q38 -7 70.5 -20.5t61.5 -38t45.5 -65t16.5 -93.5t-12 -101.5t-43 -96t-78 -82.5t-123 -56.5t-172 -21.5h-639zM418 473l-49 -272h239q119 0 170 41t51 120
q0 111 -143 111h-268zM494 889l-41 -227h239q95 0 142 35t47 91q0 58 -42 79.5t-116 21.5h-229z" />
    <glyph glyph-name="afii10068" unicode="&#x433;" horiz-adv-x="909" 
d="M29 0l196 1090h762l-41 -230h-475l-156 -860h-286z" />
    <glyph glyph-name="afii10069" unicode="&#x434;" horiz-adv-x="1366" 
d="M-111 -262l86 491h105q119 178 196.5 389.5t133.5 471.5h856l-156 -861h115l-86 -491h-258l43 262h-734l-43 -262h-258zM821 229l115 631h-324q-79 -393 -227 -631h436z" />
    <glyph glyph-name="afii10070" unicode="&#x435;" horiz-adv-x="1138" 
d="M1063 444h-741q-5 -30 -5 -59q0 -77 52.5 -132.5t152.5 -55.5q65 0 117 32t78 80h317q-21 -67 -64 -126.5t-107 -108.5t-156 -78t-199 -29q-223 0 -348 141t-125 388q0 85 21 171t67.5 168.5t112 146t162 102t210.5 38.5q76 0 144.5 -18t128.5 -58t103.5 -98.5t69 -144.5
t25.5 -191q0 -96 -16 -168zM342 645h455v41q0 39 -11.5 74.5t-35.5 66t-65.5 48.5t-96.5 18q-104 0 -166.5 -72.5t-79.5 -175.5z" />
    <glyph glyph-name="afii10072" unicode="&#x436;" horiz-adv-x="1726" 
d="M1776 1090l-521 -519l314 -571h-314l-239 467h-49l-82 -467h-271l80 467h-39l-389 -467h-356l534 588l-288 502h317l207 -435h49l72 435h272l-76 -435h37l404 435h338z" />
    <glyph glyph-name="afii10073" unicode="&#x437;" horiz-adv-x="1024" 
d="M406 471l30 182q25 -8 70 -8q86 0 137 47t51 127q0 51 -36.5 83t-98.5 32q-73 0 -117.5 -39t-56.5 -107h-281q11 46 32 89.5t60 89t90.5 79t128 55t167.5 21.5q200 0 291.5 -74t91.5 -200q0 -113 -78 -187t-191 -83v-5q58 -10 100 -33t64.5 -54.5t32.5 -64t10 -67.5
q0 -79 -29 -147t-87 -123t-155.5 -86t-225.5 -31q-120 0 -205 26.5t-132.5 76t-68 112t-20.5 144.5h270q9 -170 176 -170q85 0 140 51.5t55 128.5q0 67 -40.5 102t-111.5 35q-47 0 -63 -2z" />
    <glyph glyph-name="afii10074" unicode="&#x438;" 
d="M23 0l196 1090h277l-121 -670h4l534 670h287l-196 -1090h-277l125 690h-4l-551 -690h-274z" />
    <glyph glyph-name="afii10075" unicode="&#x439;" 
d="M477 1513h96q4 -49 41 -75q49 -33 142 -33q198 0 248 108h96q-24 -133 -120 -206.5t-226 -73.5q-62 0 -108.5 9t-76.5 28t-49 41.5t-28 57.5t-12 66.5t-3 77.5zM23 0l196 1090h277l-121 -670h4l534 670h287l-196 -1090h-277l125 690h-4l-551 -690h-274z" />
    <glyph glyph-name="afii10076" unicode="&#x43a;" 
d="M45 0l197 1090h286l-79 -445h4l485 445h393l-547 -459l353 -631h-334l-240 463l-172 -137l-59 -326h-287z" />
    <glyph glyph-name="afii10077" unicode="&#x43b;" horiz-adv-x="1335" 
d="M778 0l156 860h-346l-88 -420q-12 -57 -20 -92.5t-20.5 -82.5t-24 -76t-29.5 -64t-37.5 -56t-46 -43t-58 -33t-71.5 -18.5t-87 -7.5q-92 0 -174 23l45 229q23 -10 54 -10q69 0 109.5 38t64.5 154l145 689h912l-197 -1090h-287z" />
    <glyph glyph-name="afii10078" unicode="&#x43c;" horiz-adv-x="1478" 
d="M23 0l196 1090h410l57 -848h4l328 848h409l-196 -1090h-254l168 930h-4l-361 -930h-266l-68 918h-4l-166 -918h-253z" />
    <glyph glyph-name="afii10079" unicode="&#x43d;" 
d="M29 0l196 1090h287l-72 -394h396l71 394h287l-197 -1090h-286l84 467h-396l-84 -467h-286z" />
    <glyph glyph-name="afii10080" unicode="&#x43e;" 
d="M340 473q0 -133 62.5 -204.5t164.5 -71.5q132 0 224 115.5t92 303.5q0 132 -63 204.5t-165 72.5q-132 0 -223.5 -116t-91.5 -304zM45 477q0 61 14 128t42.5 141t79 140t117.5 119.5t164.5 85t213.5 31.5q108 0 198.5 -31.5t159 -93t106.5 -160t38 -225.5q0 -61 -14 -128
t-42.5 -141t-79 -140t-117.5 -119.5t-164.5 -85t-213.5 -31.5q-104 0 -194.5 33.5t-159.5 96t-108.5 160.5t-39.5 220z" />
    <glyph glyph-name="afii10081" unicode="&#x43f;" 
d="M29 0l196 1090h969l-197 -1090h-286l155 860h-395l-156 -860h-286z" />
    <glyph glyph-name="afii10082" unicode="&#x440;" 
d="M-47 -434l274 1524h258l-47 -207l4 -4q61 123 149.5 183t217.5 60q44 0 89.5 -11.5t97 -44t91 -81.5t65.5 -132.5t26 -188.5q0 -65 -11 -136t-34 -151.5t-65 -152t-97.5 -130t-138.5 -93t-181 -34.5q-124 0 -198.5 69t-96.5 165h-4l-114 -635h-285zM399 457
q0 -126 55.5 -187t145.5 -61q62 0 113 29t84 75.5t56 107t32.5 121.5t9.5 122q0 102 -57.5 165.5t-143.5 63.5q-55 0 -100.5 -21t-75.5 -53t-52.5 -76t-35 -85t-20 -84.5t-9.5 -70t-2 -46.5z" />
    <glyph glyph-name="afii10083" unicode="&#x441;" horiz-adv-x="1138" 
d="M768 387h289q-33 -188 -170 -304t-340 -116q-245 0 -373.5 135t-128.5 383q0 89 17.5 174.5t60.5 170.5t106.5 149t164.5 103.5t227 39.5t228 -46t166.5 -141t69.5 -226h-294q-13 184 -191 184q-124 0 -198 -120.5t-74 -315.5q0 -115 53 -187.5t151 -72.5q89 0 148.5 54
t87.5 136z" />
    <glyph glyph-name="afii10084" unicode="&#x442;" horiz-adv-x="1024" 
d="M256 0l156 860h-318l41 230h922l-41 -230h-318l-155 -860h-287z" />
    <glyph glyph-name="afii10085" unicode="&#x443;" horiz-adv-x="1024" 
d="M240 78l-142 1012h285l70 -791h4l319 791h303l-575 -1215q-40 -85 -72 -137.5t-75 -94.5t-96 -59.5t-124 -17.5q-53 0 -127 16l27 232q6 0 36 -3.5t46 -3.5q67 0 100 38.5t33 103.5q0 43 -12 129z" />
    <glyph glyph-name="afii10086" unicode="&#x444;" horiz-adv-x="1820" 
d="M569 -434l99 549l-4 2q-31 -62 -97.5 -106t-167.5 -44q-45 0 -92 16t-94.5 52.5t-84.5 89t-60 133.5t-23 178q0 105 24.5 207t71.5 188t110 151.5t144 102.5t170 37q96 0 158 -44.5t106 -129.5h5l94 522h286l-90 -499l4 -2q67 88 125.5 120.5t155.5 32.5q150 0 244 -129
t94 -338q0 -63 -9.5 -128t-30 -133t-51 -129.5t-74.5 -116t-97.5 -95t-124 -63.5t-150.5 -23q-81 0 -147 45t-100 121h-5l-102 -567h-287zM328 463q0 -47 8.5 -90t27.5 -84.5t56 -66.5t88 -25q66 0 120.5 44.5t84.5 110.5q24 53 43.5 165.5t19.5 170.5q0 94 -45 149.5
t-115 55.5q-69 0 -126.5 -44t-91.5 -111.5t-52 -139.5t-18 -135zM1018 397q0 -87 36.5 -143.5t116.5 -56.5q73 0 131 41.5t92 109.5t52 147t18 160q0 114 -50.5 176t-129.5 62q-68 0 -121 -45.5t-83.5 -120t-46 -159t-15.5 -171.5z" />
    <glyph glyph-name="afii10087" unicode="&#x445;" horiz-adv-x="1024" 
d="M-41 0l387 543l-270 547h309l137 -326l197 326h315l-372 -549l276 -541h-311l-135 315l-197 -315h-336z" />
    <glyph glyph-name="afii10088" unicode="&#x446;" 
d="M29 0l196 1090h287l-156 -861h396l155 861h287l-156 -863h105l-84 -489h-252l43 262h-821z" />
    <glyph glyph-name="afii10089" unicode="&#x447;" horiz-adv-x="1138" 
d="M598 0l78 436q-114 -18 -227 -18q-192 0 -272.5 62t-80.5 186q0 38 33 231l35 193h287l-39 -213q-21 -113 -21 -152q0 -54 37.5 -80.5t124.5 -26.5q69 0 160 17l82 455h286l-196 -1090h-287z" />
    <glyph glyph-name="afii10090" unicode="&#x448;" horiz-adv-x="1708" 
d="M29 0l196 1090h279l-156 -861h295l156 861h278l-155 -861h295l155 861h279l-197 -1090h-1425z" />
    <glyph glyph-name="afii10091" unicode="&#x449;" horiz-adv-x="1708" 
d="M29 0l196 1090h279l-156 -861h295l156 861h278l-155 -861h295l155 861h279l-156 -863h104l-83 -489h-252l43 262h-1278z" />
    <glyph glyph-name="afii10092" unicode="&#x44a;" horiz-adv-x="1366" 
d="M606 498l-53 -285h225q100 0 152.5 45.5t52.5 120.5q0 72 -43 95.5t-135 23.5h-199zM225 0l160 860h-303l43 230h590l-70 -379h281q178 0 259 -75.5t81 -219.5q0 -58 -14 -114.5t-47.5 -112t-82.5 -97t-125 -67t-170 -25.5h-602z" />
    <glyph glyph-name="afii10093" unicode="&#x44b;" horiz-adv-x="1705" 
d="M27 0l198 1090h291l-70 -379h281q178 0 259 -75.5t81 -219.5q0 -58 -14 -114.5t-47 -112t-82 -97t-125 -67t-170 -25.5h-602zM408 498l-54 -285h226q99 0 151.5 45.5t52.5 120.5q0 72 -43 95.5t-135 23.5h-198zM1149 0l197 1090h286l-196 -1090h-287z" />
    <glyph glyph-name="afii10094" unicode="&#x44c;" horiz-adv-x="1138" 
d="M27 0l198 1090h291l-70 -379h252q178 0 259 -75.5t81 -219.5q0 -58 -14 -114.5t-47 -112t-82 -97t-125 -67t-170 -25.5h-573zM408 498l-54 -285h197q100 0 152.5 45.5t52.5 120.5q0 72 -43 95.5t-135 23.5h-170z" />
    <glyph glyph-name="afii10095" unicode="&#x44d;" horiz-adv-x="1138" 
d="M453 457l32 188h283q2 14 2 49q0 83 -47.5 141t-136.5 58q-147 0 -232 -160h-295q61 185 203 287t338 102q91 0 171.5 -27t147.5 -82t106.5 -149t39.5 -217q0 -48 -6 -100.5t-23.5 -120.5t-44.5 -130t-74.5 -123t-108 -106t-150 -72.5t-195.5 -27.5q-198 0 -320 104.5
t-139 295.5h283q18 -170 198 -170q97 0 159 62t97 198h-288z" />
    <glyph glyph-name="afii10096" unicode="&#x44e;" horiz-adv-x="1705" 
d="M1350 657q0 114 -49.5 175t-143.5 61q-75 0 -136 -40.5t-97.5 -107t-56 -144.5t-19.5 -159q0 -245 192 -245q71 0 128 37t89.5 91t54.5 120t30 118.5t8 93.5zM6 0l195 1090h288l-77 -428h178q73 239 222 349.5t345 110.5q219 0 347 -121t128 -354q0 -36 -5 -81.5
t-21.5 -113.5t-42 -131.5t-73 -129t-108.5 -114t-153 -79.5t-203 -31q-121 0 -211.5 36t-144 102t-79.5 151.5t-26 192.5h-190l-82 -449h-287z" />
    <glyph glyph-name="afii10097" unicode="&#x44f;" 
d="M1190 1090l-201 -1090h-284l71 403h-207q-52 0 -85.5 -21.5t-57.5 -90.5q-6 -18 -18 -51t-16 -44.5t-12.5 -35.5t-12 -32t-10 -25t-10 -24t-9.5 -19.5t-11 -20.5t-11 -18t-13 -21h-301l6 43q23 6 38 25t32 65l80 215q31 82 66.5 116t109.5 38q-24 9 -41 16t-45 27
t-45.5 44t-31 66.5t-13.5 94.5q0 20 3 44t12.5 63.5t34.5 80t62 70.5q45 36 103.5 55.5t99.5 23t102 3.5h615zM813 604l49 275h-219q-89 0 -127 -13q-29 -11 -48.5 -30.5t-27.5 -41.5t-11 -37.5t-3 -29.5q0 -34 14 -58t33 -36t50 -19t54 -8.5t56 -1.5h180z" />
    <glyph glyph-name="afii10071" unicode="&#x451;" horiz-adv-x="1138" 
d="M1063 444h-741q-5 -30 -5 -59q0 -77 52.5 -132.5t152.5 -55.5q65 0 117 32t78 80h317q-21 -67 -64 -126.5t-107 -108.5t-156 -78t-199 -29q-223 0 -348 141t-125 388q0 85 21 171t67.5 168.5t112 146t162 102t210.5 38.5q76 0 144.5 -18t128.5 -58t103.5 -98.5t69 -144.5
t25.5 -191q0 -96 -16 -168zM342 645h455v41q0 39 -11.5 74.5t-35.5 66t-65.5 48.5t-96.5 18q-104 0 -166.5 -72.5t-79.5 -175.5zM717 1251l43 242h268l-43 -242h-268zM315 1251l43 242h269l-43 -242h-269z" />
    <glyph glyph-name="afii10099" unicode="&#x452;" 
d="M123 0l192 1030h-182l39 213h182l37 227h287l-37 -227h492l-39 -213h-492l-47 -254q134 103 264 103q127 0 205 -91.5t78 -279.5q0 -118 -26 -264.5t-64 -239.5q-59 -144 -118.5 -217.5t-145 -107t-230.5 -39.5l43 237q77 13 115 62.5t84 195.5q24 75 41.5 176.5
t17.5 165.5q0 104 -32.5 146.5t-92.5 42.5q-86 0 -178 -105l-106 -561h-287z" />
    <glyph glyph-name="afii10100" unicode="&#x453;" horiz-adv-x="909" 
d="M29 0l196 1090h762l-41 -230h-475l-156 -860h-286zM408 1251l208 295h326l-330 -295h-204z" />
    <glyph glyph-name="afii10101" unicode="&#x454;" horiz-adv-x="1138" 
d="M1094 729h-293q-18 91 -65 127.5t-124 36.5q-94 0 -156 -69.5t-89 -178.5h292l-28 -188h-293q3 -116 55.5 -188t149.5 -72q88 0 144 50t81 124h287q-85 -404 -543 -404q-223 0 -340 133.5t-117 366.5q0 128 38.5 244.5t110 208.5t184.5 147t251 55q110 0 196.5 -32
t140 -88t83.5 -125t35 -148z" />
    <glyph glyph-name="afii10102" unicode="&#x455;" horiz-adv-x="1024" 
d="M29 367h270q4 -42 13.5 -72t29.5 -58t58.5 -42.5t93.5 -14.5q75 0 124.5 28.5t49.5 84.5q0 42 -30 71.5t-78.5 47.5t-106.5 34.5t-116.5 40.5t-107 58.5t-78.5 95.5t-30 143q0 65 26.5 124.5t77.5 108t132.5 77t183.5 28.5q111 0 194.5 -24t131 -60t77 -87.5t39.5 -96.5
t12 -98h-274q-15 83 -50.5 118t-133.5 35q-75 0 -110.5 -28.5t-35.5 -67.5q0 -35 30 -60.5t78.5 -43.5t107 -36.5t116.5 -46t106.5 -64.5t78.5 -99t30 -144q0 -69 -27.5 -130.5t-81.5 -112t-143.5 -80t-204.5 -29.5q-75 0 -139.5 12.5t-123 42t-100 74.5t-65.5 114t-24 157z
" />
    <glyph glyph-name="afii10103" unicode="&#x456;" horiz-adv-x="569" 
d="M29 0l196 1090h287l-197 -1090h-286zM260 1251l47 254h287l-47 -254h-287z" />
    <glyph glyph-name="afii10104" unicode="&#x457;" horiz-adv-x="569" 
d="M29 0l196 1090h287l-197 -1090h-286zM463 1251l43 242h268l-43 -242h-268zM61 1251l43 242h269l-43 -242h-269z" />
    <glyph glyph-name="afii10105" unicode="&#x458;" horiz-adv-x="569" 
d="M512 1090l-197 -1088q-18 -98 -36 -162.5t-47.5 -121t-70 -87.5t-99.5 -48t-140 -17q-38 0 -90 10l33 227q32 -8 47 -8q43 0 66 28.5t36 102.5l211 1164h287zM260 1251l47 254h287l-47 -254h-287z" />
    <glyph glyph-name="afii10106" unicode="&#x459;" horiz-adv-x="1857" 
d="M1143 498l-53 -285h180q100 0 152.5 45.5t52.5 120.5q0 72 -43.5 95.5t-135.5 23.5h-153zM205 401l145 689h901l-69 -379h235q178 0 259 -75.5t81 -219.5q0 -58 -14 -114.5t-47 -112t-82 -97t-125 -67t-170 -25.5h-557l160 860h-334l-88 -420q-12 -57 -20 -92.5
t-20.5 -82.5t-24 -76t-29.5 -64t-37.5 -56t-46 -43t-58 -33t-71.5 -18.5t-87 -7.5q-92 0 -174 23l45 229q23 -10 54 -10q69 0 109.5 38t64.5 154z" />
    <glyph glyph-name="afii10107" unicode="&#x45a;" horiz-adv-x="1775" 
d="M29 0l196 1090h287l-68 -379h369l70 379h286l-69 -379h235q178 0 259 -75.5t81 -219.5q0 -58 -14 -114.5t-47 -112t-82 -97t-125 -67t-170 -25.5h-557l94 498h-368l-91 -498h-286zM1061 498l-53 -285h180q100 0 152.5 45.5t52.5 120.5q0 72 -43.5 95.5t-135.5 23.5h-153z
" />
    <glyph glyph-name="afii10108" unicode="&#x45b;" 
d="M123 0l192 1030h-182l39 213h182l37 227h287l-37 -227h492l-39 -213h-492l-47 -260q85 64 141.5 86.5t141.5 22.5q138 0 213 -80.5t75 -190.5q0 -41 -14 -121l-90 -487h-291l88 469q12 67 12 102t-30 65t-84 30q-68 0 -133.5 -49.5t-73.5 -94.5l-100 -522h-287z" />
    <glyph glyph-name="afii10109" unicode="&#x45c;" 
d="M45 0l197 1090h286l-79 -445h4l485 445h393l-547 -459l353 -631h-334l-240 463l-172 -137l-59 -326h-287zM586 1251l209 295h325l-329 -295h-205z" />
    <glyph glyph-name="afii10110" unicode="&#x45e;" horiz-adv-x="1024" 
d="M240 78l-142 1012h285l70 -791h4l319 791h303l-575 -1215q-40 -85 -72 -137.5t-75 -94.5t-96 -59.5t-124 -17.5q-53 0 -127 16l27 232q6 0 36 -3.5t46 -3.5q67 0 100 38.5t33 103.5q0 43 -12 129zM367 1495h88q6 -56 53 -80q45 -22 139 -22q185 0 238 102h90
q-11 -82 -76 -154q-104 -108 -297 -108q-118 0 -179 55t-61 158q0 9 5 49z" />
    <glyph glyph-name="afii10193" unicode="&#x45f;" 
d="M29 0l198 1090h287l-158 -861h394l157 861h287l-199 -1090h-354l-45 -262h-258l45 262h-354z" />
    <glyph glyph-name="afii10146" unicode="&#x462;" horiz-adv-x="1705" 
d="M803 649l-72 -395h264q145 0 221 54.5t76 176.5q0 89 -55 126.5t-156 37.5h-278zM375 0l200 1079h-272l45 242h273l26 149h307l-26 -149h385l-45 -242h-385l-35 -188h256q252 0 373.5 -105.5t121.5 -293.5q0 -34 -4 -69t-17.5 -85.5t-36 -94.5t-64 -90t-96 -78.5
t-137 -53.5t-183.5 -21h-686z" />
    <glyph glyph-name="afii10194" unicode="&#x463;" horiz-adv-x="1366" 
d="M606 498l-53 -285h225q100 0 152.5 45.5t52.5 120.5q0 72 -43 95.5t-135 23.5h-199zM225 0l164 877h-272l39 213h272l70 380h282l-67 -380h336l-37 -213h-336l-31 -166h281q178 0 259 -75.5t81 -219.5q0 -58 -14 -114.5t-47.5 -112t-82.5 -97t-125 -67t-170 -25.5h-602z
" />
    <glyph glyph-name="afii10147" unicode="&#x472;" horiz-adv-x="1593" 
d="M109 618q0 107 21.5 212t63 205t108 185t151 149.5t198 101t242.5 36.5q141 0 254 -41.5t184 -107.5t118.5 -154t67 -175t19.5 -177q0 -107 -21.5 -212t-63 -205t-108 -185t-151 -149.5t-198 -101t-242.5 -36.5q-141 0 -254 41.5t-184 107.5t-118.5 154t-67 175
t-19.5 177zM451 856h778v10q0 98 -28 174t-76.5 121.5t-109.5 68.5t-132 23q-93 0 -168.5 -33t-126.5 -91.5t-84 -125.5t-53 -147zM1194 614h-778v-10q0 -98 28 -174t76.5 -121.5t109.5 -68.5t132 -23q93 0 168.5 33t126 91t84 125t53.5 148z" />
    <glyph glyph-name="afii10195" unicode="&#x473;" 
d="M45 477q0 61 14 128t42.5 141t79 140t117.5 119.5t164.5 85t213.5 31.5q108 0 198.5 -31.5t159 -93t106.5 -160t38 -225.5q0 -61 -14 -128t-42.5 -141t-79 -140t-117.5 -119.5t-164.5 -85t-213.5 -31.5q-104 0 -194.5 33.5t-159.5 96t-108.5 160.5t-39.5 220zM860 457
h-520q4 -125 66.5 -192.5t160.5 -67.5q100 0 180 69.5t113 190.5zM365 645h518q-7 120 -69 184t-159 64q-98 0 -176.5 -66t-113.5 -182z" />
    <glyph glyph-name="afii10148" unicode="&#x474;" horiz-adv-x="1536" 
d="M465 0l-348 1470h334l223 -1114h4l354 830q66 154 176 237.5t248 83.5q92 0 197 -37l-41 -235q-57 31 -105 31t-93 -32.5t-77 -100.5l-526 -1133h-346z" />
    <glyph glyph-name="afii10196" unicode="&#x475;" 
d="M362 0l-268 1090h295l160 -783h4l278 576q61 126 146 182.5t199 56.5q72 0 182 -26l-60 -209q-50 22 -84 22q-88 0 -137 -96l-407 -813h-308z" />
    <glyph glyph-name="afii10050" unicode="&#x490;" horiz-adv-x="1138" 
d="M31 0l270 1470h729l47 259h240l-94 -512h-662l-223 -1217h-307z" />
    <glyph glyph-name="afii10098" unicode="&#x491;" horiz-adv-x="909" 
d="M29 0l196 1090h537l45 253h227l-88 -483h-475l-156 -860h-286z" />
    <glyph glyph-name="afii10846" unicode="&#x4d9;" horiz-adv-x="1138" 
d="M49 645h746v37q0 94 -49.5 152.5t-155.5 58.5q-73 0 -126.5 -32t-80.5 -81h-305q24 67 67 125.5t106.5 108.5t154 79t196.5 29q233 0 354 -139t121 -389q0 -85 -21 -171t-67.5 -168.5t-112 -146t-162 -102.5t-210.5 -39q-76 0 -144.5 18t-128.5 58t-103.5 98.5t-69 144.5
t-25.5 191q0 96 16 168zM770 444h-455v-41q0 -54 19.5 -98.5t68.5 -76t121 -31.5q104 0 166.5 72.5t79.5 174.5z" />
    <glyph glyph-name="endash" unicode="&#x2013;" horiz-adv-x="1138" 
d="M-23 451l37 217h1147l-37 -217h-1147z" />
    <glyph glyph-name="emdash" unicode="&#x2014;" horiz-adv-x="2048" 
d="M231 451l45 217h1518l-45 -217h-1518z" />
    <glyph glyph-name="quoteleft" unicode="&#x2018;" horiz-adv-x="454" 
d="M113 907l49 242q17 84 51 145.5t81.5 97t98 54t111.5 24.5l-21 -98q-95 -21 -140 -69.5t-56 -128.5h157l-53 -267h-278z" />
    <glyph glyph-name="quoteright" unicode="&#x2019;" horiz-adv-x="454" 
d="M190 1204l54 266h278l-49 -241q-59 -292 -342 -322l21 99q95 21 140 69.5t56 128.5h-158z" />
    <glyph glyph-name="quotesinglbase" unicode="&#x201a;" horiz-adv-x="454" 
d="M10 0l53 266h279l-49 -241q-59 -292 -342 -322l20 98q95 21 140.5 70t56.5 129h-158z" />
    <glyph glyph-name="quotedblleft" unicode="&#x201c;" horiz-adv-x="909" 
d="M131 907l49 242q17 84 51 145.5t81.5 97t98 54t111.5 24.5l-20 -98q-95 -21 -140.5 -70t-56.5 -128h158l-53 -267h-279zM555 907l49 242q17 84 51 145.5t81.5 97t98 54t111.5 24.5l-20 -98q-95 -21 -140.5 -70t-56.5 -128h158l-53 -267h-279z" />
    <glyph glyph-name="quotedblright" unicode="&#x201d;" horiz-adv-x="909" 
d="M627 1204l53 266h278l-49 -241q-59 -292 -342 -322l21 99q95 21 140 69.5t56 128.5h-157zM203 1204l53 266h279l-50 -241q-59 -292 -342 -322l21 99q95 21 140 69.5t56 128.5h-157z" />
    <glyph glyph-name="quotedblbase" unicode="&#x201e;" horiz-adv-x="909" 
d="M496 0l53 266h278l-49 -241q-59 -292 -342 -322l21 98q95 21 140 70t56 129h-157zM72 0l53 266h278l-49 -241q-59 -292 -342 -322l21 98q95 21 140 70t56 129h-157z" />
    <glyph glyph-name="dagger" unicode="&#x2020;" horiz-adv-x="1138" 
d="M467 -369h-250l205 1147h-346l41 217h344l84 469h252l-86 -469h346l-39 -217h-344z" />
    <glyph glyph-name="daggerdbl" unicode="&#x2021;" horiz-adv-x="1138" 
d="M647 313h342l-39 -219h-342l-82 -452h-252l82 452h-346l41 219h344l88 480h-342l35 221h348l82 456h250l-84 -456h340l-39 -217h-338z" />
    <glyph glyph-name="bullet" unicode="&#x2022;" horiz-adv-x="1024" 
d="M145 735q0 152 107.5 260.5t259.5 108.5t260.5 -108.5t108.5 -260.5t-108 -259t-261 -107q-152 0 -259.5 107t-107.5 259z" />
    <glyph glyph-name="ellipsis" unicode="&#x2026;" horiz-adv-x="2048" 
d="M76 0l59 307h309l-59 -307h-309zM758 0l59 307h309l-59 -307h-309zM1440 0l59 307h309l-59 -307h-309z" />
    <glyph glyph-name="perthousand" unicode="&#x2030;" horiz-adv-x="2048" 
d="M934 199q0 -50 16.5 -74.5t57.5 -24.5q56 0 83 45.5t48 149.5q10 58 10 96q0 49 -17 73.5t-57 24.5q-57 0 -83.5 -45t-47.5 -149q-10 -62 -10 -96zM1098 623q126 0 183.5 -67.5t57.5 -178.5q0 -64 -12.5 -122.5t-40.5 -111t-68.5 -91.5t-99.5 -62t-131 -23
q-122 0 -184 67t-62 189q0 72 21.5 140.5t63 128t112 95.5t160.5 36zM221 -33l811 1495h164l-809 -1495h-166zM408 1462q126 0 183.5 -67.5t57.5 -177.5q0 -64 -12.5 -122.5t-40.5 -111t-68.5 -91.5t-99.5 -62t-131 -23q-122 0 -184 67t-62 189q0 72 21.5 140.5t63 127.5
t112 95t160.5 36zM242 1040q0 -49 16.5 -73.5t56.5 -24.5q57 0 83.5 44.5t47.5 148.5q11 68 11 96q0 50 -16.5 74t-57.5 24q-56 0 -83.5 -45t-47.5 -149q-10 -58 -10 -95zM1784 623q126 0 183.5 -67.5t57.5 -178.5q0 -64 -12.5 -122.5t-40.5 -111t-68.5 -91.5t-99.5 -62
t-131 -23q-122 0 -184 67t-62 189q0 72 21.5 140.5t63 128t112 95.5t160.5 36zM1620 199q0 -50 16.5 -74.5t57.5 -24.5q56 0 83 45.5t48 149.5q10 58 10 96q0 49 -17 73.5t-57 24.5q-57 0 -83.5 -45t-47.5 -149q-10 -62 -10 -96z" />
    <glyph glyph-name="guilsinglleft" unicode="&#x2039;" horiz-adv-x="681" 
d="M141 676l410 289l-49 -242l-246 -172l178 -180l-45 -217l-289 319z" />
    <glyph glyph-name="guilsinglright" unicode="&#x203a;" horiz-adv-x="681" 
d="M508 442l-408 -288l47 241l246 172l-178 181l45 217l291 -318z" />
    <glyph glyph-name="fraction" unicode="&#x2044;" horiz-adv-x="342" 
d="M997 1454l-1192 -1493h-161l1194 1493h159z" />
    <glyph glyph-name="Euro" unicode="&#x20ac;" horiz-adv-x="1138" 
d="M1423 1272l-143 -230q-7 29 -47 78q-78 105 -229 105q-198 0 -304 -279h519l-123 -194h-453l-20 -99h413l-123 -194h-311q-1 -36 -0.5 -73.5t13 -72.5t32 -62.5t55 -44t82.5 -16.5q186 0 338 109l-55 -262q-136 -76 -332 -76q-213 0 -325.5 124.5t-102.5 373.5h-184
l123 194h84q2 9 5 28t5 28l8 43h-164l121 194h103q90 245 255.5 376.5t389.5 131.5q140 0 238.5 -56.5t131.5 -125.5z" />
    <glyph glyph-name="afii61289" unicode="&#x2113;" horiz-adv-x="1040" 
d="M838 358l80 -102q-105 -145 -228 -213t-250 -68q-89 0 -151.5 27.5t-94 77t-42 109.5t-2.5 133q1 4 2 11t2 11q-21 -14 -64.5 -43.5t-60.5 -40.5l-33 129q22 17 90.5 66t103.5 77l113 527q28 134 78.5 236t113.5 163t132.5 91t144.5 30q138 0 187.5 -101t15.5 -261
q-36 -176 -177 -352t-380 -369l-19 -86q-22 -117 17.5 -178.5t120.5 -61.5q78 0 157.5 54.5t143.5 133.5zM539 1063l-72 -340q310 286 356 502q37 178 -78 178q-56 0 -112 -79.5t-94 -260.5z" />
    <glyph glyph-name="afii61352" unicode="&#x2116;" horiz-adv-x="2048" 
d="M1524 700q0 -141 104 -141q45 0 81 29.5t56 73.5t30.5 88t10.5 81q0 142 -104 142q-45 0 -81 -29.5t-56 -74t-30.5 -88.5t-10.5 -81zM1282 690q0 84 29.5 168t84 155.5t143.5 116t196 44.5q147 0 230 -91t83 -241q0 -84 -29.5 -168t-84 -155.5t-143.5 -116t-196 -44.5
q-147 0 -230 91t-83 241zM0 0l266 1470h324l262 -1013h4l164 1013h283l-267 -1470h-315l-258 977h-4l-176 -977h-283zM1171 41l37 201h699l-37 -201h-699z" />
    <glyph glyph-name="trademark" unicode="&#x2122;" horiz-adv-x="2048" 
d="M197 1343v127h602v-127h-224v-608h-153v608h-225zM946 735v735h221l133 -575h3l131 575h223v-735h-141v615h-3l-139 -615h-149l-135 615h-3v-615h-141z" />
    <glyph glyph-name="Omega" unicode="&#x2126;" horiz-adv-x="1445" 
d="M264 199l2 6q-41 48 -71 106t-52 135t-22.5 162t18.5 187q29 138 101 260.5t171.5 212t227 142t262.5 52.5q82 0 152.5 -19.5t123 -55t93 -84t65.5 -106t37 -122t10.5 -132t-16.5 -134.5q-40 -190 -147 -348t-236 -256l-2 -6h285l-43 -199h-531l31 145q126 74 231 228
t154 383q17 78 18 151.5t-15 137.5t-48 112t-85 75.5t-122 27.5q-167 0 -300 -145.5t-181 -369.5q-32 -149 -20 -270t50.5 -203.5t98.5 -126.5l-31 -145h-530l43 199h278z" />
    <glyph glyph-name="estimated" unicode="&#x212e;" horiz-adv-x="1974" 
d="M1903 694h-1344q-12 0 -12 -10v-405q0 -23 18 -48q101 -104 231.5 -162.5t276.5 -58.5q157 0 296.5 66t240.5 182h119q-112 -133 -286 -211t-372 -78q-168 0 -321.5 59t-264.5 159t-177 238t-66 290t66 290t177 238.5t264.5 159.5t321.5 59q170 0 324 -59t265.5 -159.5
t177 -238.5t65.5 -290v-21zM1597 748v407q0 31 -18 49q-101 100 -231.5 156.5t-274.5 56.5t-274.5 -58t-231.5 -161q-20 -20 -20 -51v-399q0 -4 3.5 -9.5t8.5 -5.5h1030q8 0 8 15z" />
    <glyph glyph-name="partialdiff" unicode="&#x2202;" horiz-adv-x="1138" 
d="M227 1149l-123 154q55 41 96.5 66t112.5 47t150 22q123 0 220.5 -43.5t159.5 -114.5t102.5 -169t57.5 -201t17 -216q0 -56 -3.5 -111t-17 -130t-35 -139t-61.5 -130t-93.5 -112.5t-133.5 -75.5t-178 -29q-93 0 -170.5 29t-128 76.5t-85.5 109.5t-50 125.5t-15 128.5
q0 192 122 321.5t321 129.5q75 0 158 -26.5t122 -86.5q1 55 -4.5 112t-25.5 124t-51.5 118t-87.5 85t-128 34q-43 0 -82 -9t-71.5 -27t-51.5 -30.5t-43 -31.5zM508 152q66 0 119 38.5t84 100t46 134.5t13 146q-20 23 -37 39.5t-49 41t-73 37.5t-87 13q-63 0 -111.5 -26.5
t-75 -69t-39.5 -89t-13 -93.5q0 -135 67 -203.5t156 -68.5z" />
    <glyph glyph-name="Delta" unicode="&#x2206;" horiz-adv-x="1228" 
d="M877 229l-269 789l-346 -789h615zM0 0l655 1462l574 -1462h-1229z" />
    <glyph glyph-name="product" unicode="&#x220f;" horiz-adv-x="1632" 
d="M1581 1219h-209v-1418h-242v1418h-460v-1418h-242v1418h-209v221h1362v-221z" />
    <glyph glyph-name="summation" unicode="&#x2211;" horiz-adv-x="1302" 
d="M1266 -199h-1051v158l502 662l-484 649v170h1000v-207h-672v-6l430 -565l-477 -629v-6h752v-226z" />
    <glyph glyph-name="minus" unicode="&#x2212;" horiz-adv-x="1196" 
d="M1200 403h-1032l49 230h1032z" />
    <glyph glyph-name="uni2215" unicode="&#x2215;" horiz-adv-x="342" 
d="M997 1454l-1192 -1493h-161l1194 1493h159z" />
    <glyph glyph-name="uni2219" unicode="&#x2219;" horiz-adv-x="569" 
d="M100 451l60 307h309l-59 -307h-310z" />
    <glyph glyph-name="radical" unicode="&#x221a;" horiz-adv-x="1138" 
d="M88 139l-86 174l305 131l264 -526l336 1544h230l-426 -1884h-207l-311 608z" />
    <glyph glyph-name="infinity" unicode="&#x221e;" horiz-adv-x="1669" 
d="M836 659q35 42 62 72t67.5 65.5t78.5 57t87.5 36.5t101.5 15q63 0 122 -21.5t109.5 -64t81.5 -115t31 -165.5q0 -164 -95.5 -268.5t-250.5 -104.5q-111 0 -201.5 57.5t-193.5 171.5q-45 -47 -68 -69.5t-66.5 -58.5t-78 -53.5t-82.5 -31.5t-99 -14q-153 0 -251.5 101.5
t-98.5 267.5q0 173 101 269.5t243 96.5q56 0 109 -17t89.5 -37.5t80 -60t64 -62.5t57.5 -67zM952 530q82 -89 148.5 -128.5t132.5 -39.5q25 0 50.5 8t51.5 26t42 53t16 83q0 86 -48.5 131.5t-115.5 45.5q-53 0 -117 -37t-160 -142zM717 530q-70 70 -105 97q-96 80 -178 80
q-63 0 -110.5 -47.5t-47.5 -127.5q0 -79 46 -123t118 -44q54 0 114 32.5t95.5 64.5t67.5 68z" />
    <glyph glyph-name="integral" unicode="&#x222b;" horiz-adv-x="972" 
d="M928 1753l-27 -168q-38 19 -74 19q-64 0 -102 -52q-32 -41 -44.5 -125t-12.5 -225q0 -163 14 -487t14 -512q0 -277 -75 -414q-38 -71 -106.5 -106t-147.5 -35q-94 0 -154 33l31 174q52 -21 90 -21q60 0 90 41q57 75 57 326q0 188 -15 520.5t-15 503.5q0 179 28 285.5
t92 175.5q41 45 103.5 68.5t128.5 23.5q73 0 125 -25z" />
    <glyph glyph-name="approxequal" unicode="&#x2248;" horiz-adv-x="1228" 
d="M1014 483l73 -198q-23 -32 -38.5 -52t-41 -46.5t-49.5 -41t-57 -25.5t-70 -11q-85 0 -208 67q-125 70 -236 70q-106 0 -172 -148l-74 201q92 176 256 176q83 0 228 -65q8 -3 44 -19t49 -21.5t39 -15t43.5 -13t33.5 -3.5q38 0 73.5 23.5t56 49.5t50.5 72zM1014 934
l73 -199q-23 -32 -38.5 -52t-41 -46.5t-49.5 -41t-57 -25.5t-70 -11q-52 0 -99 17t-109 51q-123 69 -236 69q-61 0 -101.5 -40.5t-70.5 -106.5l-74 201q92 176 256 176q81 0 228 -66q8 -3 44 -19t49 -21.5t39 -15t43.5 -13t33.5 -3.5q29 0 55 11.5t49 35.5t38.5 44.5
t37.5 54.5z" />
    <glyph glyph-name="notequal" unicode="&#x2260;" horiz-adv-x="1228" 
d="M96 178v230h338l135 221h-473v229h615l108 178h230l-109 -178h193v-229h-334l-135 -221h469v-230h-611l-110 -178h-230l111 178h-197z" />
    <glyph glyph-name="lessequal" unicode="&#x2264;" horiz-adv-x="1228" 
d="M1133 113v-230h-1037v230h1037zM1133 440v-213l-1037 373v172l1037 381v-213l-717 -252v-4z" />
    <glyph glyph-name="greaterequal" unicode="&#x2265;" horiz-adv-x="1228" 
d="M96 -117v230h1037v-230h-1037zM96 227v213l717 244v4l-717 252v213l1037 -381v-172z" />
    <glyph glyph-name="lozenge" unicode="&#x25ca;" horiz-adv-x="1376" 
d="M1274 719l-408 -819h-194l-396 819l406 821h195zM1059 713l-242 504q-31 85 -39 122h-6q-11 -49 -39 -122l-241 -492l243 -512q27 -80 35 -117h8q11 59 35 113z" />
    <glyph glyph-name="afii10068.ital" unicode="&#xf6c4;" horiz-adv-x="909" 
d="M293 1296l22 152h664l-25 -152h-661zM29 0l196 1090h762l-41 -230h-475l-156 -860h-286z" />
    <glyph glyph-name="afii10066.ital" unicode="&#xf6c5;" 
d="M1010 1507h229q-65 -167 -181 -216q-67 -29 -204 -31h-27h-1h-1h-1h-1h-2q-228 -3 -277 -11q-77 -11 -92 -52q-6 -15 -6 -36q0 -76 105 -76q94 -2 134.5 -4t104.5 -9t98.5 -19.5t75.5 -36t76 -58.5q73 -69 105.5 -161.5t32.5 -184.5q0 -61 -14 -128t-42.5 -141t-79 -140
t-117.5 -119.5t-164.5 -85t-213.5 -31.5q-104 0 -194.5 33.5t-159.5 96t-108.5 160.5t-39.5 220q0 39 4 78.5t20.5 101t44 114t80.5 108t125 92.5q-116 55 -116 192q0 35 8 70t30.5 75t58 71t97 53.5t140.5 25.5l393 15q37 2 52 7.5t28 26.5zM651 862q-135 0 -223 -105.5
t-88 -287.5q0 -130 64.5 -201t160.5 -71q134 0 226 117.5t92 275.5q0 47 -11 91t-36 86.5t-72.5 68.5t-112.5 26z" />
    <glyph glyph-name="afii10069.ital" unicode="&#xf6c6;" 
d="M883 870l30 220h277l-184 -1020q-15 -86 -33 -148.5t-46.5 -123.5t-68.5 -101.5t-96.5 -72.5t-134.5 -47t-178 -15q-82 0 -151 15t-114.5 38t-80.5 55t-54.5 63t-32 64.5t-16 57t-4.5 43.5h295q14 -123 172 -123q82 0 132.5 36t86 125.5t61.5 253.5q-110 -190 -303 -190
q-84 0 -151 25.5t-111.5 69.5t-74.5 105.5t-43 131t-13 149.5q0 86 20 174.5t62.5 172.5t101.5 149.5t143.5 105t182.5 39.5q50 0 92.5 -10t72 -24.5t55.5 -38.5t41 -43t29.5 -49t20.5 -45.5t15 -41.5zM336 477q0 -112 48 -179t157 -67q74 0 129.5 40.5t85.5 105.5
t44.5 133.5t14.5 136.5q0 108 -52.5 169t-148.5 61q-56 0 -103 -26t-78.5 -68t-54 -95.5t-32.5 -107t-10 -103.5z" />
    <glyph glyph-name="afii10081.ital" unicode="&#xf6c7;" 
d="M354 1296l23 152h735l-22 -152h-736zM1190 1090l-197 -1090h-266l45 197q-150 -226 -387 -226q-61 0 -115.5 17.5t-99.5 52t-71.5 92.5t-26.5 133q0 93 20 207l115 617h289l-115 -609q-16 -88 -16 -129q0 -74 41.5 -106.5t91.5 -32.5q126 0 201.5 85.5t101.5 236.5
l100 555h289z" />
    <glyph glyph-name="afii10084.ital" unicode="&#xf6c8;" horiz-adv-x="1708" 
d="M29 0l196 1090h279l-156 -861h295l156 861h278l-155 -861h295l155 861h279l-197 -1090h-1425zM354 1296l23 152h1186l-23 -152h-1186z" />
    <glyph glyph-name="acute.cap" unicode="&#xf6c9;" horiz-adv-x="569" 
d="M299 1597l209 295h326l-330 -295h-205z" />
    <glyph glyph-name="caron.cap" unicode="&#xf6ca;" horiz-adv-x="569" 
d="M305 1597l-170 295h201l106 -172l187 172h219l-287 -295h-256z" />
    <glyph glyph-name="dieresis.cap" unicode="&#xf6cb;" horiz-adv-x="569" 
d="M473 1597l43 242h268l-43 -242h-268zM72 1597l43 242h268l-43 -242h-268z" />
    <glyph glyph-name="space_uni0308_uni0301.cap" unicode="&#xf6cc;" horiz-adv-x="569" 
d="M637 1597l43 230h207l-43 -230h-207zM-20 1597l43 230h206l-43 -230h-206zM289 1597l106 295h285l-227 -295h-164z" />
    <glyph glyph-name="space_uni0308_uni0300.cap" unicode="&#xf6cd;" horiz-adv-x="569" 
d="M512 1597l-287 295h310l178 -295h-201zM760 1597l43 230h207l-43 -230h-207zM-20 1597l43 230h206l-43 -230h-206z" />
    <glyph glyph-name="grave.cap" unicode="&#xf6ce;" horiz-adv-x="569" 
d="M328 1597l-287 295h309l178 -295h-200z" />
    <glyph glyph-name="hungarumlaut.cap" unicode="&#xf6cf;" horiz-adv-x="569" 
d="M74 1597l209 293h325l-329 -293h-205zM483 1597l209 295h326l-330 -295h-205z" />
    <glyph glyph-name="macron.cap" unicode="&#xf6d0;" horiz-adv-x="569" 
d="M27 1597l22 152h694l-22 -152h-694z" />
    <glyph glyph-name="breve.cyrcap" unicode="&#xf6d1;" horiz-adv-x="569" 
d="M135 1878h96q8 -109 183 -109q198 0 248 109h96q-24 -133 -120 -207t-226 -74q-74 0 -126 14.5t-81.5 37t-45 61.5t-20 75.5t-4.5 92.5z" />
    <glyph glyph-name="circumflex.cyrcap" unicode="&#xf6d2;" horiz-adv-x="569" 
d="M709 1597h-97q-8 109 -182 109q-198 0 -248 -109h-96q24 133 120 207t226 74q74 0 126 -14.5t81.5 -37t45 -61.5t20 -75.5t4.5 -92.5z" />
    <glyph glyph-name="space_uni030F" unicode="&#xf6d3;" horiz-adv-x="569" 
d="M164 1251l-287 295h309l179 -295h-201zM553 1251l-287 295h309l179 -295h-201z" />
    <glyph glyph-name="breve.cyr" unicode="&#xf6d4;" horiz-adv-x="569" 
d="M94 1532h96q8 -109 183 -109q198 0 248 109h96q-24 -133 -120 -207t-226 -74q-74 0 -126 14.5t-81.5 37t-45 61.5t-20 75.5t-4.5 92.5z" />
    <glyph glyph-name="circumflex.cyr" unicode="&#xf6d5;" horiz-adv-x="569" 
d="M709 1233h-97q-8 108 -182 108q-198 0 -248 -108h-96q24 133 120 206.5t226 73.5q62 0 108.5 -9t76.5 -28t49 -41.5t28 -57.5t12 -66.5t3 -77.5z" />
    <glyph glyph-name="space_uni030F.cap" unicode="&#xf6d6;" horiz-adv-x="569" 
d="M164 1597l-287 295h309l179 -295h-201zM553 1597l-287 295h309l179 -295h-201z" />
    <glyph glyph-name="space_uni0308_uni0301" unicode="&#xf6d7;" horiz-adv-x="569" 
d="M606 1251l43 230h207l-43 -230h-207zM-51 1251l43 230h207l-43 -230h-207zM258 1251l107 336h284l-227 -336h-164z" />
    <glyph glyph-name="space_uni0308_uni0300" unicode="&#xf6d8;" horiz-adv-x="569" 
d="M512 1251l-287 295h310l178 -295h-201zM760 1251l43 230h207l-43 -230h-207zM-20 1251l43 230h206l-43 -230h-206z" />
    <glyph glyph-name="f_i" unicode="&#xfb01;" 
d="M653 885l-188 -885h-287l189 885h-158l43 205h158l18 88q68 311 387 311q96 0 146 -4l-50 -232h-80q-37 0 -58 -5t-34 -22.5t-18.5 -35t-13.5 -57.5l-11 -43h187l-43 -205h-187zM1055 1090h286l-231 -1090h-287zM1425 1485l-57 -266h-287l58 266h286z" />
    <glyph glyph-name="f_l" unicode="&#xfb02;" 
d="M653 885l-188 -885h-287l189 885h-158l43 205h158l18 88q68 311 387 311q96 0 146 -4l-50 -232h-80q-37 0 -58 -5t-34 -22.5t-18.5 -35t-13.5 -57.5l-11 -43h187l-43 -205h-187zM1423 1470l-313 -1470h-287l314 1470h286z" />
    </font>
</defs>
</svg>
